<?xml version="1.0" encoding="UTF-8" standalone="no"?>
<svg width="211px" height="180px" viewBox="0 0 211 180" version="1.1" xmlns="http://www.w3.org/2000/svg" xmlns:xlink="http://www.w3.org/1999/xlink" xmlns:sketch="http://www.bohemiancoding.com/sketch/ns">
    <!-- Generator: bin/sketchtool 1.4 (305) - http://www.bohemiancoding.com/sketch -->
    <title>architect-step03 copy</title>
    <desc>Created with bin/sketchtool.</desc>
    <defs></defs>
    <g id="Styler" stroke="none" stroke-width="1" fill="none" fill-rule="evenodd" sketch:type="MSPage">
        <g id="VD-420-1024" sketch:type="MSArtboardGroup" transform="translate(-620.000000, -1736.000000)">
            <g id="architect-step03-copy-+-sonhos-step4-copy-+-Group-Copy" sketch:type="MSLayerGroup" transform="translate(17.000000, 1395.000000)">
                <g id="architect-step03-copy" transform="translate(603.000000, 341.000000)" sketch:type="MSShapeGroup">
                    <path d="M53.58584,27.3622856 L46.479776,19.8960445 C46.300772,19.7079338 46.048688,19.6 45.788288,19.6 C45.527888,19.6 45.275804,19.7079338 45.0968,19.8960445 L37.990736,27.3622856 C37.943024,27.4123648 37.900856,27.4696341 37.862468,27.5363507 L33.16124,32.4759718 C32.99282,32.6527123 32.9,32.8842975 32.9,33.128089 L32.9,44.204886 C32.9,44.7275831 33.327308,45.1529642 33.85256,45.1529642 L48.064604,45.1529642 C48.400772,45.1529642 48.70922,44.9778958 48.881084,44.6928035 L53.57408,39.7619609 C53.598524,39.7362942 53.616248,39.7120489 53.631116,39.6914821 C53.636912,39.6842921 53.643044,39.6763496 53.650604,39.6664007 L53.662364,39.6505993 C53.673536,39.6358013 53.684372,39.6207524 53.6942,39.605202 C53.79416,39.4514528 53.846912,39.2737926 53.846912,39.0910326 L53.846912,28.0143192 C53.846912,27.7707785 53.754176,27.5392769 53.58584,27.3622856 L53.58584,27.3622856 Z M47.112044,43.2568078 L34.80512,43.2568078 L34.80512,33.5058154 L40.95854,27.0404908 L47.082728,33.4751325 C47.083904,33.5487047 47.093732,33.6226949 47.112044,33.6951802 L47.112044,43.2568078 L47.112044,43.2568078 Z M48.209672,31.902025 L42.251888,25.6422845 L45.788288,21.926721 L51.746072,28.1864615 L48.209672,31.902025 L48.209672,31.902025 Z M49.017164,41.792721 L49.017164,33.8108056 L51.941708,30.7379957 L51.941708,38.7199946 L49.017164,41.792721 L49.017164,41.792721 Z" id="Page-1" fill="#9BCBDE"></path>
                    <g id="Imported-Layers-+-Stroke-1" transform="translate(58.800000, 42.000000)">
                        <path d="M82.9661739,74.8202 C82.9661739,74.48315 76.4628822,59.02925 59.6961322,53.31515 C60.7227989,52.6442 61.7494655,51.9701 62.4328405,50.9621 C70.9894655,42.56105 70.9894655,28.7861 62.4328405,20.38505 C58.3261739,16.35305 52.8495489,14 46.6895489,14 C40.5295489,14 35.3962155,16.35305 30.9462572,20.38505 C26.8395905,24.41705 24.4429655,29.7941 24.4429655,35.8421 C24.4429655,41.55305 26.8395905,46.9301 30.9462572,51.29915 C31.9729239,52.30715 32.9995905,52.9781 34.0262572,53.6522 C17.2562989,59.02925 11.0962989,74.14925 10.7562155,74.8202 C10.0728405,76.49915 10.7562155,78.51515 12.8095489,79.18925 C14.5195905,79.8602 16.5729239,79.18925 17.2595072,77.17325 C17.2595072,76.8362 25.1295489,58.02125 47.0328405,58.02125 C68.5928405,58.02125 76.1227989,76.16525 76.4628822,76.8362 C77.1462572,78.18125 78.1729239,78.8522 79.5428822,78.8522 C79.8861739,78.8522 80.2262572,78.8522 80.9128405,78.51515 C82.6228822,78.51515 83.6495489,76.49915 82.9661739,74.8202 L82.9661739,74.8202 Z M36.4228822,25.0943 C39.1595905,22.40735 43.2662572,20.72525 47.0328405,20.72525 C50.7994239,20.72525 54.9028822,22.4042 57.6427989,25.0943 C63.4595072,30.80525 63.4595072,40.2143 57.6427989,46.2623 C54.9060905,48.94925 50.7994239,50.63135 47.0328405,50.63135 C43.2662572,50.63135 39.1627989,48.9524 36.4228822,46.2623 C33.6861739,43.57535 31.9729239,39.54335 31.9729239,35.84525 C31.9729239,31.81325 33.3428822,28.1183 36.4228822,25.0943 L36.4228822,25.0943 Z" id="Imported-Layers" fill="#004466"></path>
                        <path d="M93,46.5 C93,20.8190074 72.1809926,0 46.5,0 C20.8190074,0 0,20.8190074 0,46.5 C0,72.1809926 20.8190074,93 46.5,93 C72.1809926,93 93,72.1809926 93,46.5 L93,46.5 Z" id="Stroke-1" stroke="#9BCBDE" stroke-width="4"></path>
                    </g>
                    <path d="M178.033366,39.5184492 C178.033366,40.3475343 178.507603,41.0652584 179.2,41.4168324 L179.2,41.7071871 C179.006339,41.733424 178.808594,41.748 178.60735,41.748 C177.367801,41.748 176.249582,41.227927 175.458604,40.3947606 C174.980867,40.5218637 174.473965,40.5906626 173.949563,40.5906626 C171.049893,40.5906626 168.699708,38.5022079 168.699708,35.9263304 C168.699708,33.350453 171.049893,31.2619982 173.949563,31.2619982 C176.849232,31.2619982 179.199417,33.350453 179.199417,35.9263304 C179.199417,36.9349922 178.838927,37.8684417 178.227027,38.6316431 C178.10278,38.9015913 178.032782,39.2024407 178.032782,39.5190323 L178.033366,39.5184492 Z M162.405717,27.1293999 C161.198833,28.1094927 160.533852,29.3700285 160.533852,30.6789567 C160.533852,31.413006 160.738013,32.1254827 161.139918,32.7953974 C161.554657,33.4863017 162.178806,34.1177356 162.944118,34.6220665 C163.497686,34.9864675 163.869843,35.5683429 163.96784,36.2236816 C164.000506,36.4423222 164.020922,36.6627119 164.029088,36.8819355 C164.165001,36.7688254 164.297997,36.6481358 164.428077,36.5181176 C164.868481,36.0779212 165.462882,35.8347929 166.077698,35.8347929 C166.175695,35.8347929 166.273692,35.8412064 166.372273,35.8534502 C166.754346,35.9018427 167.144002,35.9263304 167.531324,35.9269135 L167.531324,38.2590795 C167.036671,38.2590795 166.551351,38.2275953 166.077698,38.166959 C164.072837,40.1708727 161.68007,40.5300263 159.366634,40.583083 L159.366634,40.0927451 C160.6161,39.4811346 161.699903,38.3663592 161.699903,37.0929965 C161.699903,36.9151688 161.685903,36.7408394 161.660237,36.5700083 C159.549213,35.1806203 158.2,33.0577661 158.2,30.6795398 C158.2,26.4933017 162.378301,23.1 167.533074,23.1 C172.6091,23.1 176.738402,26.3906863 176.863232,30.4883022 C176.114252,30.1548024 175.298192,29.952487 174.452382,29.8947659 C174.242388,28.8732771 173.624655,27.9118417 172.661598,27.129983 C172.017616,26.6069947 171.259304,26.1936183 170.408244,25.9009315 C169.502353,25.5895873 168.535213,25.4321661 167.533657,25.4321661 C166.532102,25.4321661 165.564962,25.5901703 164.659071,25.9009315 C163.807428,26.1936183 163.049115,26.6069947 162.405717,27.129983 L162.405717,27.1293999 Z" id="Shape-Copy" fill="#004466"></path>
                    <path d="M205.954674,95.8329373 C205.954674,98.7069207 207.598593,101.194877 209.998756,102.413591 L209.998756,103.420092 C209.327438,103.511041 208.641966,103.561568 207.944362,103.561568 C203.647526,103.561568 199.771273,101.75876 197.029386,98.8706286 C195.373335,99.3112252 193.616181,99.5497133 191.798367,99.5497133 C181.746802,99.5497133 173.6,92.3101855 173.6,83.3810304 C173.6,74.4518752 181.746802,67.2123474 191.798367,67.2123474 C201.849931,67.2123474 209.996734,74.4518752 209.996734,83.3810304 C209.996734,86.877508 208.747112,90.1132657 206.625992,92.7588665 C206.195297,93.694629 205.952652,94.737509 205.952652,95.8349584 L205.954674,95.8329373 Z" id="Shape-Copy-2" stroke="#9BCBDE" stroke-width="2" transform="translate(191.799378, 85.386958) scale(-1, 1) translate(-191.799378, -85.386958) "></path>
                    <path d="M32.3557802,105.996337 C32.3557802,108.870418 33.9997556,111.35846 36.4,112.577216 L36.4,113.583751 C35.7286595,113.674703 35.0431643,113.725232 34.3455364,113.725232 C30.0485529,113.725232 26.1721682,111.922362 23.4301872,109.034132 C21.7740792,109.474744 20.0168657,109.71324 18.1989889,109.71324 C8.14708072,109.71324 0,102.473465 0,93.5440042 C0,84.6145438 8.14708072,77.3747685 18.1989889,77.3747685 C28.2508972,77.3747685 36.3979779,84.6145438 36.3979779,93.5440042 C36.3979779,97.0406014 35.148314,100.27647 33.0271207,102.922161 C32.5964113,103.857955 32.3537581,104.900871 32.3537581,105.998358 L32.3557802,105.996337 Z" id="Shape-Copy-3" fill="#004466"></path>
                    <path d="M58.8033443,153.3 L53.5641707,153.3 C53.0184029,153.3 52.5754608,152.871414 52.5754608,152.341194 L52.5754608,147.405263 L50.1036862,147.405263 L50.1036862,152.341194 C50.1036862,152.871414 49.6607441,153.3 49.1149763,153.3 L43.8758027,153.3 C43.3300348,153.3 42.8870928,152.871414 42.8870928,152.341194 L42.8870928,145.710095 L39.488897,145.710095 C39.0894582,145.710095 38.7285791,145.477105 38.5753291,145.118512 C38.422079,144.759919 38.5071081,144.348591 38.7898791,144.073414 L50.6405556,132.58117 C51.0271412,132.206277 51.6529945,132.206277 52.0385914,132.58117 L63.8902566,144.073414 C64.1730276,144.348591 64.257068,144.759919 64.1038179,145.118512 C63.9515566,145.477105 63.5906775,145.710095 63.19025,145.710095 L59.7920542,145.710095 L59.7920542,152.341194 C59.7920542,152.871414 59.3491122,153.3 58.8033443,153.3 L58.8033443,153.3 Z M54.5528806,151.382389 L57.8146344,151.382389 L57.8146344,144.751289 C57.8146344,144.222029 58.2565878,143.792484 58.8033443,143.792484 L60.8035044,143.792484 L51.3395735,134.614796 L41.8756426,143.792484 L43.8758027,143.792484 C44.4225592,143.792484 44.8645126,144.222029 44.8645126,144.751289 L44.8645126,151.382389 L48.1262664,151.382389 L48.1262664,146.446458 C48.1262664,145.917197 48.5692084,145.487652 49.1149763,145.487652 L53.5641707,145.487652 C54.1099386,145.487652 54.5528806,145.917197 54.5528806,146.446458 L54.5528806,151.382389 L54.5528806,151.382389 Z" id="Fill-2" fill="#9BCBDE"></path>
                    <path d="M109.612869,159.6 C107.975022,159.6 106.337174,160.51374 105.071564,162.036641 C103.805954,160.51374 102.242554,159.6 100.530258,159.6 C97.1801148,159.6 94.5,162.265076 94.5,165.539313 C94.5,169.346565 96.8823242,171.402481 99.562439,173.686832 C101.051392,174.981298 102.763687,176.428053 104.178192,178.407824 L104.699326,179.09313 L104.997116,179.55 L105.294907,179.09313 L105.81604,178.407824 C107.08165,176.504198 108.719498,175.133588 110.208451,173.762977 L110.506241,173.534542 C112.963013,171.402481 115.494232,169.194275 115.494232,165.539313 C115.643128,162.265076 112.888565,159.6 109.612869,159.6 L109.612869,159.6 Z M113.558594,165.539313 C113.558594,168.280534 111.697403,169.87958 109.315079,171.935496 L109.240631,171.935496 C107.826126,173.077672 106.411621,174.448282 104.997116,176.123473 C103.805954,174.676718 102.540344,173.534542 101.42363,172.544656 C101.274735,172.392366 101.051392,172.240076 100.902496,172.087786 C98.4457245,170.03187 96.5100861,168.356679 96.5100861,165.463168 C96.5100861,163.331107 98.2968293,161.655916 100.455811,161.655916 L100.530258,161.655916 C102.093659,161.655916 103.508164,162.950382 104.103745,164.320992 L104.699326,165.463168 L104.997116,166.148473 L105.294907,165.463168 L105.890488,164.320992 C106.486069,163.026527 107.975022,161.655916 109.463974,161.655916 C111.771851,161.655916 113.558594,163.407252 113.558594,165.539313 L113.558594,165.539313 Z" id="Shape" fill="#004466"></path>
                    <path d="M178.063513,150.838179 L159.446283,150.838179 C159.036301,150.838179 158.70567,150.507548 158.70567,150.097566 L158.70567,138.245429 C158.70567,137.835447 159.036301,137.504817 159.446283,137.504817 L164.187138,137.504817 L165.253714,135.376333 C165.377408,135.124276 165.634133,134.966351 165.915753,134.966351 L171.841433,134.966351 C172.123052,134.966351 172.379777,135.124276 172.503472,135.376333 L173.570048,137.504817 L178.068959,137.504817 C178.478941,137.504817 178.809571,137.835447 178.809571,138.245429 L178.809571,150.097566 C178.804904,150.507548 178.473495,150.838179 178.063513,150.838179 L178.063513,150.838179 Z M160.186896,149.356176 L177.327568,149.356176 L177.327568,138.986042 L173.110276,138.986042 C172.828657,138.986042 172.571932,138.828117 172.448237,138.57606 L171.381661,136.447576 L166.3693,136.447576 L165.302725,138.57606 C165.17903,138.828117 164.922305,138.986042 164.640686,138.986042 L160.18145,138.986042 L160.18145,149.356176 L160.186896,149.356176 Z" id="Shape" fill="#9BCBDE"></path>
                    <path d="M168.754509,147.450187 C167.707382,147.450187 166.724826,147.044873 165.984213,146.30426 C164.458644,144.778691 164.458644,142.294683 165.984213,140.768336 C166.724826,140.027723 167.707382,139.622409 168.754509,139.622409 C169.801636,139.622409 170.784192,140.027723 171.524805,140.768336 C173.050374,142.293905 173.050374,144.777913 171.524805,146.30426 C170.784192,147.044873 169.801636,147.450187 168.754509,147.450187 L168.754509,147.450187 Z M168.754509,141.104412 C168.102583,141.104412 167.495001,141.356469 167.036007,141.815463 C166.087681,142.763789 166.087681,144.309585 167.036007,145.257133 C167.495001,145.716127 168.107251,145.968184 168.754509,145.968184 C169.406435,145.968184 170.014017,145.716127 170.477678,145.257133 C171.426005,144.308807 171.426005,142.763011 170.477678,141.815463 C170.013239,141.356469 169.406435,141.104412 168.754509,141.104412 L168.754509,141.104412 Z" id="Shape" fill="#9BCBDE"></path>
                    <path d="M114.009092,15.362054 L114.009092,5.91535065 C113.757068,6.20940683 113.484088,6.48173618 113.190154,6.7323387 C111.104299,8.40976845 109.43839,9.7928444 108.192427,10.8815666 C107.800515,11.234553 107.478546,11.5140254 107.226522,11.7199838 C106.974498,11.9259422 106.638371,12.1244599 106.218141,12.3155368 C105.797912,12.5066138 105.398921,12.6021523 105.021167,12.6021523 L104.979541,12.6021523 C104.61538,12.6021523 104.216388,12.5066138 103.782567,12.3155368 C103.348745,12.1244599 103.012618,11.9259422 102.774186,11.7199838 C102.535754,11.5140254 102.213786,11.234553 101.808282,10.8815666 C100.576477,9.7928444 98.9105679,8.40976845 96.8105538,6.7323387 C96.5166198,6.48233143 96.2436406,6.21000208 95.9916162,5.91535065 L95.9916162,15.362054 C95.9916162,15.4799146 96.0335259,15.5754531 96.1173452,15.6486695 C96.2011646,15.7218859 96.2852671,15.7587918 96.3696528,15.759387 L113.631055,15.759387 C113.729033,15.759387 113.813136,15.7224812 113.883363,15.6486695 C113.95359,15.5748578 113.9955,15.4793194 114.009092,15.362054 L114.009092,15.362054 Z M114.009092,2.4277492 L114.009092,2.11881164 C114.009092,2.11881164 114.002013,2.06732204 113.987854,1.96434286 C113.973695,1.86136367 113.966616,1.80987408 113.966616,1.80987408 C113.966616,1.80987408 113.945661,1.77296824 113.903751,1.69915657 C113.861842,1.6253449 113.826728,1.59587976 113.798411,1.61076114 C113.770094,1.62564253 113.714025,1.61105877 113.630206,1.56700987 L96.3688032,1.56700987 C96.2708252,1.56700987 96.1867227,1.61105877 96.1164957,1.69915657 C96.0462687,1.78725437 96.004359,1.8756498 95.9907667,1.96434286 C95.9907667,3.34771643 96.5647593,4.51739332 97.7127443,5.47337351 C99.2248904,6.72400513 100.792822,8.02612634 102.416538,9.37973715 C102.472606,9.40890466 102.612494,9.52646761 102.836201,9.73242598 C103.059908,9.93838435 103.234909,10.0928531 103.361205,10.1958323 C103.4875,10.2988115 103.662501,10.4312558 103.886208,10.5931653 C104.109915,10.7550748 104.305871,10.8654947 104.474076,10.9244249 C104.642281,10.9833552 104.810203,11.0202611 104.977842,11.0351424 L105.019468,11.0351424 C105.173515,11.0351424 105.341436,10.9982366 105.523234,10.9244249 C105.705031,10.8506133 105.900987,10.7401934 106.111102,10.5931653 C106.321217,10.4461372 106.496218,10.3136929 106.636105,10.1958323 C106.775993,10.0779717 106.950994,9.92350297 107.161109,9.73242598 C107.371224,9.54134899 107.511111,9.42378605 107.580772,9.37973715 C109.204488,8.02612634 110.77242,6.72400513 112.284566,5.47337351 C112.704795,5.12038705 113.096707,4.64209933 113.460302,4.03851034 C113.823896,3.43492135 114.005977,2.89800097 114.006543,2.4277492 L114.009092,2.4277492 Z M115.5,1.96434286 L115.5,15.362054 C115.5,15.9067127 115.317919,16.3701191 114.953758,16.752273 C114.589597,17.134427 114.148696,17.3329447 113.631055,17.3478261 L96.3696528,17.3478261 C95.8656041,17.3478261 95.424703,17.1493084 95.0469497,16.752273 C94.6691963,16.3552377 94.4871158,15.8918314 94.5007081,15.362054 L94.5007081,1.96434286 C94.5007081,1.41968416 94.6827887,0.956277819 95.0469497,0.574123844 C95.4111107,0.19196987 95.8520117,0.000595255412 96.3696528,-3.55271368e-15 L113.631055,-3.55271368e-15 C114.149263,-3.55271368e-15 114.590164,0.191374615 114.953758,0.574123844 C115.317353,0.956873074 115.499434,1.42027941 115.5,1.96434286 L115.5,1.96434286 Z" id="Shape" fill="#004466"></path>
                </g>
            </g>
        </g>
    </g>
</svg>