<?xml version="1.0" encoding="UTF-8" standalone="no"?>
<svg width="138px" height="215px" viewBox="0 0 138 215" version="1.1" xmlns="http://www.w3.org/2000/svg" xmlns:xlink="http://www.w3.org/1999/xlink" xmlns:sketch="http://www.bohemiancoding.com/sketch/ns">
    <!-- Generator: bin/sketchtool 1.4 (305) - http://www.bohemiancoding.com/sketch -->
    <title>sonhos-step4 copy</title>
    <desc>Created with bin/sketchtool.</desc>
    <defs></defs>
    <g id="Styler" stroke="none" stroke-width="1" fill="none" fill-rule="evenodd" sketch:type="MSPage">
        <g id="VD-420-1024" sketch:type="MSArtboardGroup" transform="translate(-268.000000, -1404.000000)">
            <g id="architect-step03-copy-+-sonhos-step4-copy-+-Group-Copy" sketch:type="MSLayerGroup" transform="translate(17.000000, 1395.000000)">
                <g id="sonhos-step4-copy" transform="translate(251.000000, 9.000000)" sketch:type="MSShapeGroup">
                    <path d="M72.8662998,214.470064 C71.8187137,214.470064 70.9684989,213.647405 70.9684989,212.629664 L70.9684989,203.155282 L63.7594519,203.155282 L63.7594519,212.629664 C63.7594519,213.647405 62.9092371,214.470064 61.8616509,214.470064 L53.037476,214.470064 C51.9898898,214.470064 51.139675,213.647405 51.139675,212.629664 L51.139675,199.901454 L44.6169331,199.901454 C43.8502215,199.901454 43.1575242,199.454236 42.863365,198.765926 C42.5692059,198.077617 42.7324168,197.288085 43.2751878,196.75989 L66.0222301,174.700849 C66.7642703,173.981252 67.9655783,173.981252 68.7057207,174.700849 L91.4546607,196.75989 C91.9974318,197.288085 92.1587449,198.077617 91.8645858,198.765926 C91.5723244,199.454236 90.8796271,199.901454 90.1110177,199.901454 L83.5882758,199.901454 L83.5882758,212.629664 C83.5882758,213.647405 82.7380609,214.470064 81.6904748,214.470064 L72.8662998,214.470064 Z" id="Fill-2" stroke="#3388AA" stroke-width="3" stroke-linecap="round" stroke-linejoin="round"></path>
                    <path d="M36.30757,18.6644955 C36.30757,18.6644955 38.5862158,0.0173652788 58.951644,1.38890455e-05 C77.433936,-0.0152961607 81.5084506,12.6318256 81.5084506,12.6318256 C81.5084506,12.6318256 95.1139815,6.50168169 104.372479,15.4366267 C113.631487,24.3715718 110.679199,32.9237656 110.679199,32.9237656 C110.679199,32.9237656 124.45314,30.9722445 131.300305,40.7257669 C138.146959,50.4797996 129.584048,66.9023797 118.574591,66.2588472 C118.574591,66.2588472 113.808573,75.6490111 100.845554,70.7702086 C100.845554,70.7702086 94.7205132,85.4816354 76.6393444,82.2308015 C58.558686,78.9804779 58.8485563,69.7485179 58.8485563,69.7485179 C58.8485563,69.7485179 51.978937,79.6684095 40.1330411,77.2091051 C28.2876556,74.7508215 28.3152137,64.3180433 28.3152137,64.3180433 C28.3152137,64.3180433 9.67573847,69.3968971 2.09318116,54.5527832 C-4.9024909,40.855392 6.91023315,24.5971398 18.7459223,27.3534591 C18.7459223,27.3534591 21.5308203,14.6226424 36.30757,18.6644955 L36.30757,18.6644955 Z" id="Imported-Layers" fill="#3388AA"></path>
                    <path d="M131.241037,113.493077 C128.83271,112.616518 125.935358,113.083542 123.259337,114.645507 C122.213398,111.728859 120.403564,109.54856 117.885768,108.632157 C112.959644,106.839194 107.592423,109.32361 105.840085,114.138119 C103.802482,119.736386 106.205199,124.034445 108.923537,128.827775 C110.42014,131.528058 112.163648,134.571802 113.184014,138.239929 L113.583532,139.526522 L113.776897,140.357689 L114.459287,139.845271 L115.592341,139.116488 C118.472123,136.994697 121.613987,135.85588 124.536912,134.637377 L125.097046,134.460855 C129.850594,132.640665 134.754364,130.748354 136.710462,125.374018 C138.681739,120.639196 136.057692,115.246196 131.241037,113.493077 L131.241037,113.493077 L131.241037,113.493077 Z" id="Shape" fill="#004466"></path>
                    <path d="M33.5731146,116.479173 C32.4514885,117.059892 31.6486953,118.276452 31.3133726,119.784926 C29.915273,119.173926 28.5257969,119.092407 27.3531877,119.699522 C25.0589523,120.887355 24.1534937,123.692161 25.2959787,125.970594 C26.6244496,128.619935 28.9732802,129.205898 31.605751,129.845235 C33.0770913,130.218085 34.7545194,130.61772 36.4140015,131.493848 L37.0100073,131.785955 L37.3733558,131.998291 L37.4178713,131.574785 L37.5356276,130.913129 C37.7381033,129.139722 38.3814799,127.60524 38.9228906,126.123552 L39.0471143,125.859006 C39.9856099,123.504297 40.948519,121.070205 39.6731869,118.526838 C38.6326679,116.195612 35.816367,115.317736 33.5731146,116.479173 L33.5731146,116.479173 L33.5731146,116.479173 Z M38.3476287,119.213142 C39.3041278,121.120667 38.5875104,122.893298 37.6734284,125.168624 L37.6224454,125.19502 C37.0523095,126.491352 36.5618819,127.946644 36.177732,129.613884 C34.8571849,129.029475 33.5919325,128.68341 32.4817849,128.390526 C32.3266801,128.337345 32.1205922,128.31056 31.9654874,128.257379 C29.5656738,127.697813 27.6555884,127.218406 26.6459505,125.204907 C25.9020068,123.721276 26.5410717,121.922055 28.019579,121.156562 L28.070562,121.130166 C29.1412051,120.575844 30.5615624,120.97509 31.447676,121.717682 L32.2540814,122.301314 L32.6971381,122.67261 L32.6619454,122.090144 L32.6712682,121.084171 C32.6274521,119.972225 33.1688628,118.490536 34.1885229,117.96261 C35.7689962,117.144325 37.603685,117.729511 38.3476287,119.213142 L38.3476287,119.213142 L38.3476287,119.213142 Z" id="Shape" fill="#004466"></path>
                    <path d="M79.1933112,161.323053 C72.9623288,161.537084 68.971627,165.812769 66.71682,169.375019 L66.71682,8.20039311 L64.2957674,8.20039311 L64.2957674,173.291527 C60.9175919,173.527698 57.1794867,173.179182 53.2154165,171.943383 C52.5762586,171.742473 51.8999779,172.109851 51.7022586,172.759322 C51.5069603,173.407973 51.8668902,174.095986 52.505241,174.296075 C55.9181182,175.359666 59.1857323,175.806588 62.2314165,175.806588 C63.1820831,175.806588 64.1101533,175.763946 65.015627,175.681942 C65.107627,175.722944 65.2060831,175.752465 65.3085744,175.770506 C65.6402586,175.827909 65.9671007,175.739345 66.2229252,175.547455 C73.5918024,174.584729 79.2231709,171.106942 81.7701182,168.099858 C83.3446095,166.240829 83.8594867,164.470364 83.2195217,163.113199 C82.8103638,162.246418 81.7765744,161.233669 79.1933112,161.323053 L79.1933112,161.323053 Z M79.9357674,166.494221 C77.847206,168.96008 73.4199077,171.763794 67.5528902,172.872487 C69.1289954,169.702215 72.8469252,164.002942 79.27482,163.781531 C79.3539077,163.778251 79.4313814,163.777431 79.50482,163.777431 C80.4853463,163.777431 80.9566445,164.008682 81.0357323,164.17679 C81.1559779,164.429362 80.9622937,165.283023 79.9357674,166.494221 L79.9357674,166.494221 Z" id="Imported-Layers" fill="#3388AA"></path>
                </g>
            </g>
        </g>
    </g>
</svg>