<?xml version="1.0" encoding="UTF-8" standalone="no"?>
<svg width="61px" height="52px" viewBox="0 0 61 52" version="1.1" xmlns="http://www.w3.org/2000/svg" xmlns:xlink="http://www.w3.org/1999/xlink" xmlns:sketch="http://www.bohemiancoding.com/sketch/ns">
    <!-- Generator: bin/sketchtool 1.4 (305) - http://www.bohemiancoding.com/sketch -->
    <title>architect-step03 copy</title>
    <desc>Created with bin/sketchtool.</desc>
    <defs></defs>
    <g id="Styler" stroke="none" stroke-width="1" fill="none" fill-rule="evenodd" sketch:type="MSPage">
        <g id="VD-420-320" sketch:type="MSArtboardGroup" transform="translate(-10.000000, -2381.000000)">
            <g id="architect-step03-copy" sketch:type="MSLayerGroup" transform="translate(10.000000, 2381.000000)">
                <path d="M15.31024,7.81779587 L13.279936,5.68458415 C13.228792,5.63083822 13.156768,5.6 13.082368,5.6 C13.007968,5.6 12.935944,5.63083822 12.8848,5.68458415 L10.854496,7.81779587 C10.840864,7.83210423 10.828816,7.84846688 10.817848,7.86752877 L9.47464,9.27884908 C9.42652,9.32934636 9.4,9.39551357 9.4,9.4651683 L9.4,12.6299674 C9.4,12.7793094 9.522088,12.9008469 9.67216,12.9008469 L13.732744,12.9008469 C13.828792,12.9008469 13.91692,12.8508274 13.966024,12.7693724 L15.30688,11.3605603 C15.313864,11.3532269 15.318928,11.3462997 15.323176,11.3404235 C15.324832,11.3383692 15.326584,11.3360999 15.328744,11.3332573 L15.332104,11.3287427 C15.335296,11.3245147 15.338392,11.320215 15.3412,11.315772 C15.36976,11.2718436 15.384832,11.2210836 15.384832,11.1688664 L15.384832,8.00409121 C15.384832,7.93450814 15.358336,7.86836482 15.31024,7.81779587 L15.31024,7.81779587 Z M13.460584,12.3590879 L9.94432,12.3590879 L9.94432,9.57309012 L11.70244,7.72585451 L13.452208,9.56432356 C13.452544,9.58534419 13.455352,9.60648426 13.460584,9.62719435 L13.460584,12.3590879 L13.460584,12.3590879 Z M13.774192,9.11486428 L12.071968,7.32636699 L13.082368,6.26477742 L14.784592,8.0532747 L13.774192,9.11486428 L13.774192,9.11486428 Z M14.004904,11.9407774 L14.004904,9.66023018 L14.840488,8.78228447 L14.840488,11.0628556 L14.004904,11.9407774 L14.004904,11.9407774 Z" id="Page-1" fill="#9BCBDE" sketch:type="MSShapeGroup"></path>
                <g id="Imported-Layers-+-Stroke-1" transform="translate(16.800000, 12.000000)" sketch:type="MSShapeGroup">
                    <path d="M23.7046211,21.3772 C23.7046211,21.2809 21.8465378,16.8655 17.0560378,15.2329 C17.3493711,15.0412 17.6427044,14.8486 17.8379544,14.5606 C20.2827044,12.1603 20.2827044,8.2246 17.8379544,5.8243 C16.6646211,4.6723 15.0998711,4 13.3398711,4 C11.5798711,4 10.1132044,4.6723 8.84178777,5.8243 C7.66845443,6.9763 6.98370443,8.5126 6.98370443,10.2406 C6.98370443,11.8723 7.66845443,13.4086 8.84178777,14.6569 C9.1351211,14.9449 9.42845443,15.1366 9.72178777,15.3292 C4.9303711,16.8655 3.1703711,21.1855 3.07320443,21.3772 C2.87795443,21.8569 3.07320443,22.4329 3.6598711,22.6255 C4.14845443,22.8172 4.7351211,22.6255 4.93128777,22.0495 C4.93128777,21.9532 7.1798711,16.5775 13.4379544,16.5775 C19.5979544,16.5775 21.7493711,21.7615 21.8465378,21.9532 C22.0417878,22.3375 22.3351211,22.5292 22.7265378,22.5292 C22.8246211,22.5292 22.9217878,22.5292 23.1179544,22.4329 C23.6065378,22.4329 23.8998711,21.8569 23.7046211,21.3772 L23.7046211,21.3772 Z M10.4065378,7.1698 C11.1884544,6.4021 12.3617878,5.9215 13.4379544,5.9215 C14.5141211,5.9215 15.6865378,6.4012 16.4693711,7.1698 C18.1312878,8.8015 18.1312878,11.4898 16.4693711,13.2178 C15.6874544,13.9855 14.5141211,14.4661 13.4379544,14.4661 C12.3617878,14.4661 11.1893711,13.9864 10.4065378,13.2178 C9.6246211,12.4501 9.1351211,11.2981 9.1351211,10.2415 C9.1351211,9.0895 9.52653777,8.0338 10.4065378,7.1698 L10.4065378,7.1698 Z" id="Imported-Layers" fill="#004466"></path>
                    <path d="M26.5714286,13.2857143 C26.5714286,5.94828782 20.6231408,0 13.2857143,0 C5.94828782,0 0,5.94828782 0,13.2857143 C0,20.6231408 5.94828782,26.5714286 13.2857143,26.5714286 C20.6231408,26.5714286 26.5714286,20.6231408 26.5714286,13.2857143 L26.5714286,13.2857143 Z" id="Stroke-1" stroke="#9BCBDE" stroke-width="4"></path>
                </g>
                <path d="M50.8666759,11.2909855 C50.8666759,11.5278669 51.0021722,11.732931 51.2,11.8333807 L51.2,11.9163392 C51.1446682,11.9238354 51.0881698,11.928 51.0306714,11.928 C50.6765145,11.928 50.3570234,11.7794077 50.1310297,11.5413602 C49.9945335,11.5776753 49.8497042,11.5973322 49.699875,11.5973322 C48.871398,11.5973322 48.1999167,11.0006308 48.1999167,10.2646658 C48.1999167,9.52870085 48.871398,8.9319995 49.699875,8.9319995 C50.528352,8.9319995 51.1998333,9.52870085 51.1998333,10.2646658 C51.1998333,10.5528549 51.0968362,10.8195548 50.9220077,11.0376123 C50.8865087,11.1147404 50.8665093,11.2006973 50.8665093,11.2911521 L50.8666759,11.2909855 Z M46.4016333,7.75125713 C46.0568095,8.03128364 45.8668148,8.39143672 45.8668148,8.76541621 C45.8668148,8.97514457 45.9251465,9.17870935 46.0399767,9.37011356 C46.1584734,9.56751476 46.3368018,9.74792446 46.5554623,9.89201901 C46.7136246,9.99613357 46.819955,10.1623837 46.8479542,10.3496233 C46.8572873,10.412092 46.8631205,10.4750605 46.8654537,10.5376958 C46.904286,10.5053787 46.9422849,10.4708959 46.9794506,10.4337479 C47.1052804,10.3079775 47.275109,10.2385123 47.4507708,10.2385123 C47.47877,10.2385123 47.5067693,10.2403447 47.5349351,10.2438429 C47.6440988,10.2576693 47.755429,10.2646658 47.8660926,10.2648324 L47.8660926,10.9311656 C47.7247632,10.9311656 47.5861004,10.9221701 47.4507708,10.9048454 C46.8779534,11.4773922 46.1943057,11.5800075 45.5333241,11.5951666 L45.5333241,11.45507 C45.8903142,11.2803242 46.1999722,10.9618169 46.1999722,10.597999 C46.1999722,10.5471911 46.1959723,10.4973827 46.1886392,10.4485738 C45.5854893,10.0516058 45.2,9.44507604 45.2,8.76558279 C45.2,7.56951476 46.3938002,6.6 47.8665926,6.6 C49.3168856,6.6 50.4966862,7.5401961 50.5323519,8.71094347 C50.3183578,8.61565783 50.0851976,8.55785343 49.8435377,8.54136168 C49.7835393,8.24950775 49.6070442,7.97481191 49.3318852,7.75142371 C49.1478903,7.6019985 48.9312297,7.48389095 48.6880698,7.40026613 C48.4292436,7.31131066 48.152918,7.26633317 47.8667593,7.26633317 C47.5806005,7.26633317 47.3042749,7.31147724 47.0454487,7.40026613 C46.8021222,7.48389095 46.5854615,7.6019985 46.4016333,7.75142371 L46.4016333,7.75125713 Z" id="Shape-Copy" fill="#004466" sketch:type="MSShapeGroup"></path>
                <path d="M58.8441926,27.3808392 C58.8441926,28.2019773 59.3138838,28.9128219 59.9996445,29.2610261 L59.9996445,29.5485976 C59.8078394,29.574583 59.6119904,29.5890194 59.4126749,29.5890194 C58.1850073,29.5890194 57.0775067,29.0739313 56.2941103,28.248751 C55.8209528,28.3746358 55.318909,28.4427752 54.7995334,28.4427752 C51.9276578,28.4427752 49.6,26.3743387 49.6,23.8231515 C49.6,21.2719643 51.9276578,19.2035278 54.7995334,19.2035278 C57.671409,19.2035278 59.9990667,21.2719643 59.9990667,23.8231515 C59.9990667,24.8221452 59.6420321,25.7466473 59.0359976,26.5025333 C58.912942,26.769894 58.8436149,27.0678597 58.8436149,27.3814167 L58.8441926,27.3808392 Z" id="Shape-Copy-2" stroke="#9BCBDE" stroke-width="2" sketch:type="MSShapeGroup" transform="translate(54.799822, 24.396274) scale(-1, 1) translate(-54.799822, -24.396274) "></path>
                <path d="M9.24450864,30.2846677 C9.24450864,31.1058339 9.71421588,31.8167028 10.4,32.1649188 L10.4,32.4525002 C10.2081884,32.4784865 10.0123326,32.4929233 9.81301039,32.4929233 C8.58530082,32.4929233 7.47776235,31.9778176 6.6943392,31.1526091 C6.22116549,31.2784982 5.71910449,31.34664 5.19971113,31.34664 C2.32773735,31.34664 0,29.2781327 0,26.7268583 C0,24.1755839 2.32773735,22.1070767 5.19971113,22.1070767 C8.07168491,22.1070767 10.3994223,24.1755839 10.3994223,26.7268583 C10.3994223,27.7258861 10.0423754,28.6504199 9.4363202,29.4063317 C9.31326037,29.6737015 9.24393089,29.9716775 9.24393089,30.2852451 L9.24450864,30.2846677 Z" id="Shape-Copy-3" fill="#004466" sketch:type="MSShapeGroup"></path>
                <path d="M16.8009555,43.8 L15.3040488,43.8 C15.1481151,43.8 15.0215602,43.6775468 15.0215602,43.5260555 L15.0215602,42.1157895 L14.3153389,42.1157895 L14.3153389,43.5260555 C14.3153389,43.6775468 14.188784,43.8 14.0328504,43.8 L12.5359436,43.8 C12.38001,43.8 12.2534551,43.6775468 12.2534551,43.5260555 L12.2534551,41.6314557 L11.282542,41.6314557 C11.1684166,41.6314557 11.0653083,41.5648872 11.0215226,41.4624319 C10.9777369,41.3599767 11.0020309,41.2424545 11.0828226,41.1638325 L14.4687302,37.8803342 C14.5791832,37.7732219 14.7579984,37.7732219 14.868169,37.8803342 L18.254359,41.1638325 C18.3351507,41.2424545 18.3591623,41.3599767 18.3153766,41.4624319 C18.2718733,41.5648872 18.168765,41.6314557 18.0543571,41.6314557 L17.0834441,41.6314557 L17.0834441,43.5260555 C17.0834441,43.6775468 16.9568892,43.8 16.8009555,43.8 L16.8009555,43.8 Z M15.5865373,43.2521111 L16.518467,43.2521111 L16.518467,41.3575112 C16.518467,41.2062939 16.6447394,41.0835668 16.8009555,41.0835668 L17.3724298,41.0835668 L14.6684496,38.4613704 L11.9644693,41.0835668 L12.5359436,41.0835668 C12.6921598,41.0835668 12.8184322,41.2062939 12.8184322,41.3575112 L12.8184322,43.2521111 L13.7503618,43.2521111 L13.7503618,41.841845 C13.7503618,41.6906277 13.8769167,41.5679006 14.0328504,41.5679006 L15.3040488,41.5679006 C15.4599824,41.5679006 15.5865373,41.6906277 15.5865373,41.841845 L15.5865373,43.2521111 L15.5865373,43.2521111 Z" id="Fill-2" fill="#9BCBDE" sketch:type="MSShapeGroup"></path>
                <path d="M31.3179627,45.6 C30.8500062,45.6 30.3820496,45.8610687 30.0204468,46.2961832 C29.658844,45.8610687 29.2121582,45.6 28.7229309,45.6 C27.7657471,45.6 27,46.3614504 27,47.2969466 C27,48.3847328 27.6806641,48.9721374 28.4464112,49.6248092 C28.8718262,49.9946565 29.3610535,50.4080153 29.7651978,50.9736641 L29.9140931,51.1694656 L29.9991761,51.3 L30.0842591,51.1694656 L30.2331543,50.9736641 C30.5947571,50.429771 31.0627137,50.0381679 31.4881287,49.6465649 L31.5732117,49.5812977 C32.2751466,48.9721374 32.9983521,48.3412214 32.9983521,47.2969466 C33.0408936,46.3614504 32.2538758,45.6 31.3179627,45.6 L31.3179627,45.6 Z M32.4453126,47.2969466 C32.4453126,48.0801527 31.9135438,48.5370229 31.2328797,49.1244275 L31.2116089,49.1244275 C30.8074646,49.4507634 30.4033204,49.8423664 29.9991761,50.3209924 C29.658844,49.9076336 29.2972412,49.5812977 28.97818,49.2984733 C28.9356385,49.2549618 28.8718262,49.2114504 28.8292847,49.1679389 C28.1273499,48.5805344 27.5743103,48.1019084 27.5743103,47.2751908 C27.5743103,46.6660305 28.0848084,46.1874046 28.7016602,46.1874046 L28.7229309,46.1874046 C29.1696167,46.1874046 29.573761,46.5572519 29.743927,46.948855 L29.9140931,47.2751908 L29.9991761,47.4709924 L30.0842591,47.2751908 L30.2544251,46.948855 C30.4245911,46.5790076 30.8500062,46.1874046 31.2754212,46.1874046 C31.9348145,46.1874046 32.4453126,46.6877863 32.4453126,47.2969466 L32.4453126,47.2969466 Z" id="Shape" fill="#004466" sketch:type="MSShapeGroup"></path>
                <path d="M50.8752894,43.0966226 L45.5560809,43.0966226 C45.4389432,43.0966226 45.3444773,43.0021567 45.3444773,42.885019 L45.3444773,39.4986941 C45.3444773,39.3815563 45.4389432,39.2870904 45.5560809,39.2870904 L46.9106109,39.2870904 L47.2153468,38.6789523 C47.2506881,38.6069359 47.3240381,38.5618145 47.4045008,38.5618145 L49.0975522,38.5618145 C49.1780149,38.5618145 49.2513649,38.6069359 49.2867063,38.6789523 L49.5914422,39.2870904 L50.8768453,39.2870904 C50.993983,39.2870904 51.0884489,39.3815563 51.0884489,39.4986941 L51.0884489,42.885019 C51.0871153,43.0021567 50.9924271,43.0966226 50.8752894,43.0966226 L50.8752894,43.0966226 Z M45.7676845,42.6731931 L50.6650194,42.6731931 L50.6650194,39.7102977 L49.460079,39.7102977 C49.3796162,39.7102977 49.3062663,39.6651763 49.2709249,39.59316 L48.966189,38.9850218 L47.5340858,38.9850218 L47.2293499,39.59316 C47.1940086,39.6651763 47.1206586,39.7102977 47.0401959,39.7102977 L45.7661286,39.7102977 L45.7661286,42.6731931 L45.7676845,42.6731931 Z" id="Shape" fill="#9BCBDE" sketch:type="MSShapeGroup"></path>
                <path d="M48.215574,42.1286249 C47.9163949,42.1286249 47.6356645,42.0128208 47.4240608,41.8012172 C46.988184,41.3653404 46.988184,40.6556236 47.4240608,40.2195245 C47.6356645,40.0079209 47.9163949,39.8921168 48.215574,39.8921168 C48.5147531,39.8921168 48.7954835,40.0079209 49.0070872,40.2195245 C49.442964,40.6554013 49.442964,41.3651181 49.0070872,41.8012172 C48.7954835,42.0128208 48.5147531,42.1286249 48.215574,42.1286249 L48.215574,42.1286249 Z M48.215574,40.3155463 C48.0293095,40.3155463 47.8557145,40.3875627 47.7245736,40.5187036 C47.4536231,40.789654 47.4536231,41.2313099 47.7245736,41.5020381 C47.8557145,41.633179 48.0306431,41.7051954 48.215574,41.7051954 C48.4018385,41.7051954 48.5754335,41.633179 48.7079081,41.5020381 C48.9788585,41.2310876 48.9788585,40.7894318 48.7079081,40.5187036 C48.5752113,40.3875627 48.4018385,40.3155463 48.215574,40.3155463 L48.215574,40.3155463 Z" id="Shape" fill="#9BCBDE" sketch:type="MSShapeGroup"></path>
                <path d="M32.5740263,4.3891583 L32.5740263,1.69010019 C32.5020193,1.77411624 32.4240252,1.85192462 32.3400441,1.92352534 C31.7440854,2.40279099 31.2681113,2.79795554 30.9121219,3.10901901 C30.800147,3.20987229 30.7081561,3.28972155 30.6361491,3.3485668 C30.5641422,3.40741205 30.4681059,3.46413139 30.3480404,3.51872481 C30.2279749,3.57331824 30.1139773,3.60061495 30.0060478,3.60061495 L29.9941545,3.60061495 C29.8901085,3.60061495 29.776111,3.57331824 29.6521619,3.51872481 C29.5282129,3.46413139 29.4321766,3.40741205 29.3640532,3.3485668 C29.2959298,3.28972155 29.2039388,3.20987229 29.0880805,3.10901901 C28.7361363,2.79795554 28.2601623,2.40279099 27.6601582,1.92352534 C27.5761771,1.85209469 27.498183,1.77428631 27.4261761,1.69010019 L27.4261761,4.3891583 C27.4261761,4.42283274 27.4381503,4.45012946 27.4620986,4.47104843 C27.486047,4.49196741 27.5100763,4.50251193 27.5341865,4.50268201 L32.4660158,4.50268201 C32.4940095,4.50268201 32.5180388,4.49213748 32.5381037,4.47104843 C32.5581685,4.44995938 32.5701427,4.42266267 32.5740263,4.3891583 L32.5740263,4.3891583 Z M32.5740263,0.693642627 L32.5740263,0.605374754 C32.5740263,0.605374754 32.5720036,0.590663441 32.5679583,0.561240817 C32.5639129,0.531818192 32.5618903,0.51710688 32.5618903,0.51710688 C32.5618903,0.51710688 32.5559032,0.506562355 32.543929,0.485473306 C32.5319548,0.464384258 32.5219223,0.455965645 32.5138317,0.46021747 C32.505741,0.464469294 32.4897215,0.460302506 32.4657731,0.447717106 L27.5339438,0.447717106 C27.5059501,0.447717106 27.4819208,0.460302506 27.4618559,0.485473306 C27.4417911,0.510644107 27.4298169,0.535899943 27.4259333,0.561240817 C27.4259333,0.95649041 27.5899312,1.29068381 27.917927,1.563821 C28.3499687,1.92114432 28.7979491,2.29317895 29.261868,2.6799249 C29.2778876,2.68825848 29.3178555,2.72184789 29.3817718,2.78069314 C29.445688,2.83953839 29.4956884,2.88367232 29.5317728,2.91309495 C29.5678572,2.94251757 29.6178575,2.98035881 29.6817738,3.02661866 C29.7456901,3.07287851 29.8016775,3.10442704 29.8497361,3.12126427 C29.8977946,3.13810149 29.9457723,3.14864602 29.9936691,3.15289784 L30.0055624,3.15289784 C30.0495756,3.15289784 30.0975533,3.14235332 30.1494954,3.12126427 C30.2014375,3.10017522 30.2574249,3.06862668 30.3174577,3.02661866 C30.3774904,2.98461063 30.4274908,2.9467694 30.4674587,2.91309495 C30.5074266,2.8794205 30.5574269,2.83528656 30.6174597,2.78069314 C30.6774925,2.72609971 30.7174604,2.6925103 30.7373634,2.6799249 C31.2012824,2.29317895 31.6492628,1.92114432 32.0813045,1.563821 C32.20137,1.46296773 32.3133449,1.32631409 32.4172291,1.1538601 C32.5211133,0.981406101 32.5731363,0.828000277 32.5732981,0.693642627 L32.5740263,0.693642627 Z M33,0.561240817 L33,4.3891583 C33,4.54477507 32.947977,4.67717688 32.843931,4.78636373 C32.739885,4.89555058 32.6139133,4.95226991 32.4660158,4.95652174 L27.5341865,4.95652174 C27.3901726,4.95652174 27.2642009,4.8998024 27.1562713,4.78636373 C27.0483418,4.67292505 26.9963188,4.54052324 27.0002023,4.3891583 L27.0002023,0.561240817 C27.0002023,0.405624045 27.0522253,0.273222234 27.1562713,0.164035384 C27.2603173,0.0548485344 27.3862891,0.000170072975 27.5341865,-1.33226763e-15 L32.4660158,-1.33226763e-15 C32.6140751,-1.33226763e-15 32.7400468,0.0546784614 32.843931,0.164035384 C32.9478152,0.273392307 32.9998382,0.405794118 33,0.561240817 L33,0.561240817 Z" id="Shape" fill="#004466" sketch:type="MSShapeGroup"></path>
            </g>
        </g>
    </g>
</svg>