<?xml version="1.0" encoding="UTF-8" standalone="no"?>
<svg width="119px" height="24px" viewBox="0 0 119 24" version="1.1" xmlns="http://www.w3.org/2000/svg" xmlns:xlink="http://www.w3.org/1999/xlink" xmlns:sketch="http://www.bohemiancoding.com/sketch/ns">
    <!-- Generator: bin/sketchtool 1.4 (305) - http://www.bohemiancoding.com/sketch -->
    <title>Imported Layers</title>
    <desc>Created with bin/sketchtool.</desc>
    <defs></defs>
    <g id="Styler" stroke="none" stroke-width="1" fill="none" fill-rule="evenodd" sketch:type="MSPage">
        <g id="VD-420-320" sketch:type="MSArtboardGroup" transform="translate(-101.000000, -28.000000)">
            <g id="header" sketch:type="MSLayerGroup">
                <g id="Imported-Layers" transform="translate(101.000000, 28.000000)" sketch:type="MSShapeGroup">
                    <path d="M13.6245083,0 L9.82471212,6.58682707 L6.02491591,0 L13.6245083,0" id="Fill-1" fill="#CD2F27"></path>
                    <path d="M10.8858856,7.57894737 L14.6856818,0.992120301 L18.485478,7.57894737 L10.8858856,7.57894737" id="Fill-2" fill="#CD2F27"></path>
                    <path d="M8.75254015,8.66165414 L4.39813182,16.210015 L0.0436333333,8.66165414 L8.75254015,8.66165414" id="Fill-3" fill="#00598C"></path>
                    <path d="M18.485478,8.57142857 L14.6856818,15.1582556 L10.8858856,8.57142857 L18.485478,8.57142857" id="Fill-4" fill="#CD2F27"></path>
                    <path d="M6.02491591,16.2406015 L9.82471212,9.65377444 L13.6245083,16.2406015 L6.02491591,16.2406015" id="Fill-5" fill="#CD2F27"></path>
                    <path d="M13.6354167,17.3233083 L9.83562045,23.9101353 L6.03591439,17.3233083 L13.6354167,17.3233083" id="Fill-6" fill="#CD2F27"></path>
                    <path d="M32.9325288,8.51341353 L34.0805182,8.51341353 L28.4230598,23.6469474 L27.4921553,23.6469474 L21.8553417,8.51341353 L22.9826864,8.51341353 L26.7887932,18.8128421 C27.3680167,20.3656241 27.7575614,21.5318797 27.9576076,22.3116992 C28.0954492,21.793985 28.3677068,20.9901654 28.7746508,19.8997895 L32.9325288,8.51341353" id="Fill-7" fill="#00598C"></path>
                    <path d="M34.9707644,9.26905263 C34.9707644,8.60661654 35.1879394,8.2753985 35.6223795,8.2753985 C35.8359485,8.2753985 36.0032697,8.36165414 36.1239826,8.53407519 C36.2446053,8.70667669 36.3049167,8.95172932 36.3049167,9.26905263 C36.3049167,9.5795188 36.2446053,9.82466165 36.1239826,10.0039398 C36.0032697,10.1834887 35.8359485,10.2730827 35.6223795,10.2730827 C35.1879394,10.2730827 34.9707644,9.93843609 34.9707644,9.26905263 L34.9707644,9.26905263 Z M35.1155477,12.3950977 L36.1394886,12.3950977 L36.1394886,23.6469474 L35.1155477,23.6469474 L35.1155477,12.3950977 Z" id="Fill-8" fill="#00598C"></path>
                    <path d="M41.5185591,23.6469474 L37.1746083,12.3950977 L38.2295614,12.3950977 L41.1359561,20.0446917 C41.5219848,21.0247218 41.8115515,21.8804211 42.0047462,22.6117895 L42.0666803,22.6117895 C42.3493955,21.6733534 42.6389621,20.8107068 42.9354705,20.0239398 L45.8418652,12.3950977 L46.8968182,12.3950977 L42.5528674,23.6469474 L41.5185591,23.6469474" id="Fill-9" fill="#00598C"></path>
                    <path d="M54.7582106,23.6469474 L54.4996561,21.8665263 L54.416897,21.8665263 C53.8514667,22.5911278 53.2704402,23.1035188 52.6740879,23.4036992 C52.0776455,23.7038797 51.3725705,23.8539248 50.5590432,23.8539248 C49.4556788,23.8539248 48.5973462,23.5711579 47.9836848,23.0051729 C47.3698432,22.4393684 47.0631477,21.6561203 47.0631477,20.6554286 C47.0631477,19.5581053 47.5199455,18.706015 48.4335409,18.0986165 C49.3471364,17.4914887 50.6692985,17.1706466 52.4000273,17.136 L54.5410356,17.0738346 L54.5410356,16.3285714 C54.5410356,15.2590376 54.3238606,14.451609 53.8894205,13.9064662 C53.4549803,13.3613233 52.7551341,13.0886617 51.7898818,13.0886617 C50.7486318,13.0886617 49.6696083,13.3784662 48.5525409,13.9581654 L48.1698477,13.0679098 C49.404022,12.4883008 50.6244932,12.198406 51.8312614,12.198406 C53.0653455,12.198406 53.9876856,12.5192481 54.5979212,13.1611128 C55.2081568,13.802797 55.5133197,14.8035789 55.5133197,16.1629173 L55.5133197,23.6469474 L54.7582106,23.6469474 L54.7582106,23.6469474 Z M50.6210674,22.9223459 C51.8208038,22.9223459 52.7672144,22.5791278 53.4601189,21.8923308 C54.1532038,21.2058045 54.4996561,20.2517594 54.4996561,19.0302857 L54.4996561,17.9227669 L52.5345333,18.0055038 C50.9554394,18.0815639 49.8298977,18.3281504 49.1575477,18.7456241 C48.485378,19.163188 48.149203,19.8135338 48.149203,20.6968421 C48.149203,21.400782 48.3646652,21.9476391 48.7955894,22.3375038 C49.2264235,22.7274586 49.8350364,22.9223459 50.6210674,22.9223459 L50.6210674,22.9223459 Z" id="Fill-10" fill="#00598C"></path>
                    <path d="M70.0456538,15.9352782 C70.0456538,18.4748571 69.3802455,20.3949474 68.0495189,21.6957293 C66.7187023,22.9966015 64.763947,23.6469474 62.1851629,23.6469474 L58.5652189,23.6469474 L58.5652189,8.51341353 L62.6506152,8.51341353 C65.0638811,8.51341353 66.8997265,9.14490226 68.1580614,10.407609 C69.4163962,11.6705865 70.0456538,13.5129925 70.0456538,15.9352782 L70.0456538,15.9352782 Z M68.8975742,15.9766917 C68.8975742,13.8098346 68.34765,12.1794586 67.2478917,11.0856541 C66.1481333,9.99203008 64.5329788,9.44499248 62.4023379,9.44499248 L59.6200818,9.44499248 L59.6200818,22.7152782 L62.1231386,22.7152782 C66.6393689,22.7152782 68.8975742,20.4690226 68.8975742,15.9766917 L68.8975742,15.9766917 Z" id="Fill-11" fill="#CD2F27"></path>
                    <path d="M76.9554068,23.8539248 C75.3213205,23.8539248 74.0473894,23.3502857 73.1337939,22.3426466 C72.2200182,21.335188 71.7634008,19.9240602 71.7634008,18.1089925 C71.7634008,16.3148571 72.2045121,14.8778346 73.0872758,13.7976541 C73.9697689,12.7177444 75.1591379,12.1777444 76.6554727,12.1777444 C77.9793477,12.1777444 79.0239333,12.6401504 79.7894098,13.564782 C80.5546159,14.489594 80.9373992,15.7455338 80.9373992,17.3326917 L80.9373992,18.160782 L72.8390886,18.160782 C72.8527917,19.7066165 73.212947,20.8866767 73.919825,21.7008722 C74.6265227,22.5152481 75.6382932,22.9223459 76.9554068,22.9223459 C77.5967447,22.9223459 78.160372,22.8775038 78.6464689,22.7877293 C79.1325659,22.6982256 79.7480303,22.5048722 80.4926818,22.2080301 L80.4926818,23.1397895 C79.8581955,23.4157895 79.2721205,23.6039098 78.7343667,23.7038797 C78.1965227,23.8038496 77.6034159,23.8539248 76.9554068,23.8539248 L76.9554068,23.8539248 Z M76.6554727,13.0886617 C75.5728432,13.0886617 74.704053,13.4457744 74.0491023,14.16 C73.3939712,14.8742256 73.011278,15.9041504 72.9010227,17.2498647 L79.8513439,17.2498647 C79.8513439,15.9455639 79.5686288,14.926015 79.0033788,14.1910376 C78.4378583,13.4561504 77.6551629,13.0886617 76.6554727,13.0886617 L76.6554727,13.0886617 Z" id="Fill-12" fill="#CD2F27"></path>
                    <path d="M87.6817242,23.8539248 C86.0751341,23.8539248 84.8168894,23.3467669 83.9067197,22.3322707 C82.99655,21.3179549 82.5414652,19.9033083 82.5414652,18.0883308 C82.5414652,16.2250827 83.0135886,14.7742556 83.9583765,13.7355789 C84.9028939,12.6970827 86.195847,12.1777444 87.836875,12.1777444 C88.8090689,12.1777444 89.7399735,12.3469173 90.6294083,12.6849023 L90.3502091,13.5958195 C89.3780152,13.2715489 88.5332955,13.1093233 87.8161402,13.1093233 C86.4370023,13.1093233 85.3925068,13.5355489 84.6823833,14.3877293 C83.9720795,15.2400902 83.6170629,16.4667068 83.6170629,18.0675789 C83.6170629,19.5858045 83.9720795,20.7744361 84.6823833,21.6336541 C85.3925068,22.492782 86.3853455,22.9223459 87.6610795,22.9223459 C88.6814144,22.9223459 89.629628,22.7396391 90.5052697,22.3736842 L90.5052697,23.326015 C89.7881144,23.6780752 88.8469326,23.8539248 87.6817242,23.8539248" id="Fill-13" fill="#CD2F27"></path>
                    <path d="M101.707317,18.0055038 C101.707317,19.8412331 101.262689,21.2749173 100.373164,22.3063759 C99.4836394,23.3381053 98.2562265,23.8539248 96.6911061,23.8539248 C95.7050288,23.8539248 94.8362386,23.6158195 94.0847356,23.1397895 C93.3330523,22.6634887 92.7572545,21.980391 92.3574326,21.0901353 C91.9575205,20.1999699 91.7576545,19.1717594 91.7576545,18.0055038 C91.7576545,16.1699549 92.202372,14.7396992 93.0918068,13.7148271 C93.9813318,12.6901353 95.201803,12.1777444 96.7532205,12.1777444 C98.2976061,12.1777444 99.5095129,12.6970827 100.38867,13.7355789 C101.267828,14.7742556 101.707317,16.1975639 101.707317,18.0055038 L101.707317,18.0055038 Z M92.8333424,18.0055038 C92.8333424,19.5514286 93.172853,20.7572932 93.8520545,21.6232782 C94.5310758,22.4893534 95.4913697,22.9223459 96.7324856,22.9223459 C97.9736015,22.9223459 98.9337152,22.4893534 99.6129167,21.6232782 C100.292028,20.7572932 100.631719,19.5514286 100.631719,18.0055038 C100.631719,16.4527218 100.288692,15.2486617 99.6026394,14.3928722 C98.9164061,13.5372632 97.9529568,13.1093233 96.7118409,13.1093233 C95.470725,13.1093233 94.5140371,13.5355489 93.8416871,14.3877293 C93.1694273,15.2400902 92.8333424,16.4460451 92.8333424,18.0055038 L92.8333424,18.0055038 Z" id="Fill-14" fill="#CD2F27"></path>
                    <path d="M108.399895,12.1777444 C108.875714,12.1777444 109.385882,12.2261053 109.930667,12.3226466 L109.734137,13.306015 C109.265169,13.1887218 108.779072,13.1300752 108.275756,13.1300752 C107.317265,13.1300752 106.531234,13.5372632 105.917663,14.3514586 C105.303911,15.1659248 104.997126,16.1940451 104.997126,17.4361805 L104.997126,23.6469474 L103.973275,23.6469474 L103.973275,12.3950977 L104.841975,12.3950977 L104.945469,14.4239098 L105.017861,14.4239098 C105.479707,13.5958195 105.972745,13.0145865 106.496886,12.6797594 C107.020847,12.3451128 107.655243,12.1777444 108.399895,12.1777444" id="Fill-15" fill="#CD2F27"></path>
                    <path d="M118.195398,23.6469474 L117.936753,21.8665263 L117.853994,21.8665263 C117.288654,22.5911278 116.707717,23.1035188 116.111275,23.4036992 C115.514833,23.7038797 114.809758,23.8539248 113.99623,23.8539248 C112.892866,23.8539248 112.034443,23.5711579 111.420872,23.0051729 C110.80703,22.4393684 110.500335,21.6561203 110.500335,20.6554286 C110.500335,19.5581053 110.957042,18.706015 111.870728,18.0986165 C112.784323,17.4914887 114.106395,17.1706466 115.837214,17.136 L117.978133,17.0738346 L117.978133,16.3285714 C117.978133,15.2590376 117.760958,14.451609 117.326608,13.9064662 C116.892167,13.3613233 116.192231,13.0886617 115.227069,13.0886617 C114.185819,13.0886617 113.106705,13.3784662 111.989728,13.9581654 L111.606945,13.0679098 C112.841209,12.4883008 114.06168,12.198406 115.268448,12.198406 C116.502533,12.198406 117.424873,12.5192481 118.035018,13.1611128 C118.645254,13.802797 118.950417,14.8035789 118.950417,16.1629173 L118.950417,23.6469474 L118.195398,23.6469474 L118.195398,23.6469474 Z M114.058255,22.9223459 C115.257991,22.9223459 116.204402,22.5791278 116.897306,21.8923308 C117.590301,21.2058045 117.936753,20.2517594 117.936753,19.0302857 L117.936753,17.9227669 L115.97172,18.0055038 C114.392627,18.0815639 113.266995,18.3281504 112.594735,18.7456241 C111.922475,19.163188 111.58639,19.8135338 111.58639,20.6968421 C111.58639,21.400782 111.801762,21.9476391 112.232777,22.3375038 C112.663611,22.7274586 113.272223,22.9223459 114.058255,22.9223459 L114.058255,22.9223459 Z" id="Fill-16" fill="#CD2F27"></path>
                </g>
            </g>
        </g>
    </g>
</svg>