<?xml version="1.0" encoding="UTF-8" standalone="no"?>
<svg width="24px" height="22px" viewBox="0 0 24 22" version="1.1" xmlns="http://www.w3.org/2000/svg" xmlns:xlink="http://www.w3.org/1999/xlink" xmlns:sketch="http://www.bohemiancoding.com/sketch/ns">
    <!-- Generator: bin/sketchtool 1.4 (305) - http://www.bohemiancoding.com/sketch -->
    <title>Shape</title>
    <desc>Created with bin/sketchtool.</desc>
    <defs></defs>
    <g id="Styler" stroke="none" stroke-width="1" fill="none" fill-rule="evenodd" sketch:type="MSPage">
        <g id="VD-420-320" sketch:type="MSArtboardGroup" transform="translate(-30.000000, -324.000000)" fill="#FFFFFF">
            <g id="Rectangle-2-+-Shape-Copy" sketch:type="MSLayerGroup" transform="translate(22.000000, 316.058824)">
                <path d="M27.4911451,8.26036717 L12.5635047,8.26036717 C10.5028019,8.26036717 8.83250035,9.82332052 8.83250035,11.7505394 L8.83250035,25.7103814 C8.83250035,27.6384474 10.5028019,29.2005536 12.5635047,29.2005536 L20.0273249,29.2005536 L20.0273249,20.0388514 L17.2283923,20.0388514 L17.2283923,17.4212222 L20.0273249,17.4212222 L20.0273249,15.4584239 C20.0273249,13.6514973 21.593459,12.186811 23.5255377,12.186811 L27.0237505,12.186811 L27.0237505,14.8044402 L23.5255377,14.8044402 C23.1387596,14.8044402 22.8262575,15.0975469 22.8262575,15.4584239 L22.8262575,17.4212222 L26.6750162,17.4212222 L25.975736,20.0388514 L22.8271633,20.0388514 L22.8271633,29.2005536 L27.4920509,29.2005536 C29.5527537,29.2005536 31.2230552,27.6376003 31.2230552,25.7103814 L31.2230552,11.7505394 C31.2230552,9.82247339 29.5527537,8.26036717 27.4920509,8.26036717 L27.4911451,8.26036717 Z" id="Shape" sketch:type="MSShapeGroup"></path>
            </g>
        </g>
    </g>
</svg>