<?xml version="1.0" encoding="UTF-8" standalone="no"?>
<svg width="60px" height="94px" viewBox="0 0 60 94" version="1.1" xmlns="http://www.w3.org/2000/svg" xmlns:xlink="http://www.w3.org/1999/xlink" xmlns:sketch="http://www.bohemiancoding.com/sketch/ns">
    <!-- Generator: bin/sketchtool 1.4 (305) - http://www.bohemiancoding.com/sketch -->
    <title>sonhos-step4 copy 2</title>
    <desc>Created with bin/sketchtool.</desc>
    <defs></defs>
    <g id="Styler" stroke="none" stroke-width="1" fill="none" fill-rule="evenodd" sketch:type="MSPage">
        <g id="VD-420-320" sketch:type="MSArtboardGroup" transform="translate(-10.000000, -2128.000000)">
            <g id="sonhos-step4-copy-2" sketch:type="MSLayerGroup" transform="translate(10.000000, 2128.000000)">
                <path d="M31.6809999,93.2478541 C31.2255277,93.2478541 30.8558691,92.8901762 30.8558691,92.4476799 L30.8558691,88.3283834 L27.7215008,88.3283834 L27.7215008,92.4476799 C27.7215008,92.8901762 27.3518422,93.2478541 26.89637,93.2478541 L23.0597722,93.2478541 C22.6042999,93.2478541 22.2346413,92.8901762 22.2346413,92.4476799 L22.2346413,86.9136755 L19.3986666,86.9136755 C19.0653137,86.9136755 18.7641409,86.7192332 18.6362457,86.419968 C18.5083504,86.1207029 18.5793116,85.7774282 18.8152991,85.5477782 L28.7053174,75.9568908 C29.0279436,75.6440227 29.5502514,75.6440227 29.8720525,75.9568908 L39.762896,85.5477782 C39.9988834,85.7774282 40.0690195,86.1207029 39.9411242,86.419968 C39.8140541,86.7192332 39.5128813,86.9136755 39.1787033,86.9136755 L36.3427286,86.9136755 L36.3427286,92.4476799 C36.3427286,92.8901762 35.97307,93.2478541 35.5175977,93.2478541 L31.6809999,93.2478541 Z" id="Fill-2" stroke="#3388AA" stroke-linecap="round" stroke-linejoin="round" sketch:type="MSShapeGroup"></path>
                <path d="M15.7859,8.11499806 C15.7859,8.11499806 16.7766155,0.0075501212 25.6311495,6.03871542e-06 C33.6669287,-0.00665050466 35.4384568,5.49209809 35.4384568,5.49209809 C35.4384568,5.49209809 41.353905,2.82681812 45.3793387,6.71157684 C49.4049942,10.5963355 48.1213908,14.3146807 48.1213908,14.3146807 C48.1213908,14.3146807 54.1100609,13.4661933 57.087089,17.7068552 C60.0638952,21.947739 56.3408905,29.0879912 51.5541702,28.8081944 C51.5541702,28.8081944 49.4819882,32.8908744 43.8458929,30.7696559 C43.8458929,30.7696559 41.1828318,37.1659284 33.3214541,35.7525224 C25.4602983,34.3393382 25.5863288,30.3254426 25.5863288,30.3254426 C25.5863288,30.3254426 22.5995378,34.6384389 17.4491483,33.5691762 C12.2989807,32.5003572 12.3109625,27.9643666 12.3109625,27.9643666 C12.3109625,27.9643666 4.20684281,30.172564 0.910078767,23.7186014 C-2.13151778,17.7632139 3.0044492,10.6944086 8.15040099,11.8928083 C8.15040099,11.8928083 9.36122623,6.35767061 15.7859,8.11499806 L15.7859,8.11499806 Z" id="Imported-Layers" fill="#3388AA" sketch:type="MSShapeGroup"></path>
                <path d="M57.0613206,49.3448162 C56.0142217,48.9637034 54.7545035,49.1667575 53.5910161,49.8458728 C53.1362599,48.577765 52.3493758,47.6298086 51.2546816,47.2313724 C49.1128885,46.4518235 46.7793142,47.5320045 46.0174281,49.6252693 C45.1315141,52.0592981 46.1761734,53.9280196 47.3580594,56.012076 C48.0087567,57.186112 48.7668036,58.5094791 49.2104409,60.104317 L49.3841442,60.6637053 L49.4682161,61.025082 L49.7649074,60.8022918 L50.2575397,60.4854298 C51.5096186,59.5629116 52.8756465,59.0677741 54.1464836,58.5379899 L54.39002,58.4612414 C56.4567801,57.6698545 58.5888539,56.8471103 59.4393314,54.5104426 C60.2964083,52.4518244 59.1555183,50.1070418 57.0613206,49.3448162 L57.0613206,49.3448162 L57.0613206,49.3448162 Z" id="Shape" fill="#004466" sketch:type="MSShapeGroup"></path>
                <path d="M14.5970064,50.6431188 C14.1093428,50.8956052 13.7603023,51.4245445 13.6145098,52.0804025 C13.0066405,51.8147506 12.4025204,51.7793073 11.8926903,52.0432703 C10.8951967,52.5597196 10.501519,53.7792003 10.9982516,54.7698234 C11.5758477,55.9217109 12.5970783,56.1764772 13.7416309,56.4544502 C14.381344,56.6165589 15.1106606,56.7903131 15.8321745,57.1712382 L16.0913075,57.2982414 L16.2492851,57.3905613 L16.2686397,57.2064282 L16.3198381,56.9187519 C16.407871,56.1477051 16.6876,55.4805393 16.9229959,54.8363268 L16.9770062,54.7213069 C17.3850478,53.6975205 17.8037039,52.6392196 17.2492117,51.5334077 C16.7968121,50.5198312 15.5723335,50.1381462 14.5970064,50.6431188 L14.5970064,50.6431188 L14.5970064,50.6431188 Z M16.672882,51.8318007 C17.0887512,52.6611596 16.7771784,53.4318686 16.3797515,54.4211407 L16.357585,54.4326173 C16.1096998,54.9962399 15.8964704,55.6289758 15.7294487,56.3538626 C15.1552978,56.0997718 14.605188,55.9493087 14.1225152,55.8219677 C14.0550783,55.7988455 13.9654749,55.7872 13.898038,55.7640778 C12.8546408,55.5207881 12.0241689,55.3123505 11.5851959,54.4369161 C11.2617421,53.7918592 11.5395964,53.0095891 12.1824256,52.6767662 L12.2045922,52.6652895 C12.6700892,52.4242798 13.2876358,52.5978652 13.6729026,52.9207314 L14.0235136,53.1744844 L14.216147,53.3359176 L14.2008458,53.0826712 L14.2048992,52.6452918 C14.1858488,52.1618369 14.4212447,51.5176244 14.8645752,51.2880913 C15.5517375,50.9323151 16.3494283,51.1867437 16.672882,51.8318007 L16.672882,51.8318007 L16.672882,51.8318007 Z" id="Shape" fill="#004466" sketch:type="MSShapeGroup"></path>
                <path d="M34.4318744,70.140458 C31.7227516,70.2335147 29.9876639,72.0925081 29.007313,73.6413128 L29.007313,3.56538831 L27.9546815,3.56538831 L27.9546815,75.3441422 C26.4859095,75.4468254 24.8606464,75.2952964 23.1371376,74.7579924 C22.8592429,74.6706404 22.5652078,74.8303698 22.4792429,75.1127485 C22.3943306,75.3947708 22.5508218,75.6939068 22.8283657,75.7809023 C24.3122253,76.2433332 25.7329271,76.4376468 27.0571376,76.4376468 C27.4704709,76.4376468 27.8739797,76.4191068 28.2676639,76.3834529 C28.3076639,76.4012799 28.3504709,76.4141153 28.3950323,76.4219591 C28.5392429,76.4469169 28.6813481,76.4084107 28.7925762,76.3249806 C31.9964358,75.906404 34.4448569,74.3943228 35.5522253,73.0868949 C36.2367867,72.2786214 36.4606464,71.508854 36.1824008,70.9187823 C36.004506,70.5419207 35.5550323,70.1015953 34.4318744,70.140458 L34.4318744,70.140458 Z M34.7546815,72.3887919 C33.8466113,73.4609041 31.921699,74.6799104 29.3708218,75.1619509 C30.056085,73.7835718 31.6725762,71.3056269 34.467313,71.2093614 C34.501699,71.2079353 34.5353832,71.2075787 34.567313,71.2075787 C34.9936288,71.2075787 35.1985411,71.3081227 35.2329271,71.3812131 C35.2852078,71.4910271 35.2009972,71.862184 34.7546815,72.3887919 L34.7546815,72.3887919 Z" id="Imported-Layers" fill="#3388AA" sketch:type="MSShapeGroup"></path>
            </g>
        </g>
    </g>
</svg>