<?xml version="1.0" encoding="UTF-8" standalone="no"?>
<svg
   xmlns:sketch="http://www.bohemiancoding.com/sketch/ns"
   xmlns:dc="http://purl.org/dc/elements/1.1/"
   xmlns:cc="http://creativecommons.org/ns#"
   xmlns:rdf="http://www.w3.org/1999/02/22-rdf-syntax-ns#"
   xmlns:svg="http://www.w3.org/2000/svg"
   xmlns="http://www.w3.org/2000/svg"
   xmlns:sodipodi="http://sodipodi.sourceforge.net/DTD/sodipodi-0.dtd"
   xmlns:inkscape="http://www.inkscape.org/namespaces/inkscape"
   width="512"
   height="512"
   viewBox="0 0 512 512"
   version="1.1"
   id="svg2"
   inkscape:version="0.91 r13725"
   sodipodi:docname="arrow-left.svg">
  <metadata
     id="metadata15">
    <rdf:RDF>
      <cc:Work
         rdf:about="">
        <dc:format>image/svg+xml</dc:format>
        <dc:type
           rdf:resource="http://purl.org/dc/dcmitype/StillImage" />
        <dc:title>comments</dc:title>
      </cc:Work>
    </rdf:RDF>
  </metadata>
  <sodipodi:namedview
     pagecolor="#ffffff"
     bordercolor="#666666"
     borderopacity="1"
     objecttolerance="10"
     gridtolerance="10"
     guidetolerance="10"
     inkscape:pageopacity="0"
     inkscape:pageshadow="2"
     inkscape:window-width="1280"
     inkscape:window-height="751"
     id="namedview13"
     showgrid="false"
     inkscape:zoom="0.71162281"
     inkscape:cx="-19.722653"
     inkscape:cy="217.81202"
     inkscape:window-x="0"
     inkscape:window-y="0"
     inkscape:window-maximized="1"
     inkscape:current-layer="svg2" />
  <!-- Generator: Sketch 3.3.2 (12043) - http://www.bohemiancoding.com/sketch -->
  <title
     id="title4">comments</title>
  <desc
     id="desc6">Created with Sketch.</desc>
  <defs
     id="defs8" />
  <g
     sketch:type="MSPage"
     id="Page-1-7"
     style="fill:none;fill-rule:evenodd;stroke:none;stroke-width:1"
     transform="matrix(32.000001,0,0,32.019122,-256.00002,-247.15295)">
    <g
       sketch:type="MSArtboardGroup"
       id="arrow-left"
       style="fill:#666666">
      <path
         transform="matrix(-1,0,0,-1,32,31.42828)"
         sketch:type="MSShapeGroup"
         id="Shape-2"
         d="m 23.665283,16.623142 c 0.446289,-0.502072 0.446289,-1.315931 0,-1.818003 L 17.950946,8.3765543 c -0.44629,-0.5020724 -1.169725,-0.5020724 -1.616014,0 -0.44629,0.5020724 -0.44629,1.3159312 0,1.8180037 l 3.763462,4.233865 -10.9555266,0 C 8.5114331,14.428423 8,15.003782 8,15.71414 c 0,0.710359 0.5114331,1.285717 1.1428674,1.285717 l 10.9555266,0 -3.763462,4.233866 c -0.22286,0.250714 -0.334861,0.579858 -0.334861,0.909001 0,0.329144 0.11143,0.658288 0.334861,0.909002 0.446289,0.502073 1.169724,0.502073 1.616014,0 l 5.714337,-6.428584 z"
         inkscape:connector-curvature="0" />
    </g>
  </g>
</svg>
