<?xml version="1.0" encoding="UTF-8" standalone="no"?>
<svg
   xmlns:sketch="http://www.bohemiancoding.com/sketch/ns"
   xmlns:dc="http://purl.org/dc/elements/1.1/"
   xmlns:cc="http://creativecommons.org/ns#"
   xmlns:rdf="http://www.w3.org/1999/02/22-rdf-syntax-ns#"
   xmlns:svg="http://www.w3.org/2000/svg"
   xmlns="http://www.w3.org/2000/svg"
   xmlns:sodipodi="http://sodipodi.sourceforge.net/DTD/sodipodi-0.dtd"
   xmlns:inkscape="http://www.inkscape.org/namespaces/inkscape"
   width="512"
   height="512"
   viewBox="0 0 512 512"
   version="1.1"
   id="svg2"
   inkscape:version="0.91 r13725"
   sodipodi:docname="styler.svg">
  <metadata
     id="metadata15">
    <rdf:RDF>
      <cc:Work
         rdf:about="">
        <dc:format>image/svg+xml</dc:format>
        <dc:type
           rdf:resource="http://purl.org/dc/dcmitype/StillImage" />
        <dc:title>left</dc:title>
      </cc:Work>
    </rdf:RDF>
  </metadata>
  <sodipodi:namedview
     pagecolor="#ffffff"
     bordercolor="#666666"
     borderopacity="1"
     objecttolerance="10"
     gridtolerance="10"
     guidetolerance="10"
     inkscape:pageopacity="0"
     inkscape:pageshadow="2"
     inkscape:window-width="1280"
     inkscape:window-height="751"
     id="namedview13"
     showgrid="false"
     inkscape:showpageshadow="false"
     inkscape:zoom="0.9140625"
     inkscape:cx="14.648699"
     inkscape:cy="259.61582"
     inkscape:window-x="0"
     inkscape:window-y="0"
     inkscape:window-maximized="1"
     inkscape:current-layer="garbage" />
  <!-- Generator: Sketch 3.3.2 (12043) - http://www.bohemiancoding.com/sketch -->
  <title
     id="title4">left</title>
  <desc
     id="desc6">Created with Sketch.</desc>
  <defs
     id="defs8" />
  <g
     sketch:type="MSPage"
     id="Page-1"
     style="fill:none;fill-rule:evenodd;stroke:none;stroke-width:1"
     transform="matrix(25.6,0,0,25.6,-153.6,-153.6)">
    <g
       sketch:type="MSArtboardGroup"
       id="garbage"
       style="fill:#666666">
      <path
         style="fill:#666666;fill-rule:evenodd;stroke:none;stroke-width:1"
         sketch:type="MSShapeGroup"
         id="path4063"
         d="M 23.998646,12.075449 18.432963,6.2317105 C 18.292762,6.0844785 18.095322,6 17.891369,6 17.687416,6 17.489976,6.0844785 17.349775,6.2317105 l -5.565683,5.8437385 c -0.03737,0.0392 -0.0704,0.08402 -0.100463,0.136238 l -3.682143,3.866182 c -0.1319116,0.138333 -0.204611,0.319592 -0.204611,0.510405 l 0,8.669676 C 7.796875,25.667059 8.1315554,26 8.5429486,26 l 11.1312994,0 c 0.263297,0 0.504882,-0.137024 0.639491,-0.360163 l 3.675696,-3.859311 c 0.01914,-0.02009 0.03302,-0.03906 0.04467,-0.05516 0.0046,-0.0057 0.0093,-0.01184 0.01526,-0.01963 l 0.0092,-0.01236 c 0.0088,-0.01158 0.01723,-0.02336 0.02494,-0.03553 0.07829,-0.120337 0.119609,-0.25939 0.119609,-0.402434 l 0,-8.669611 c 0,-0.190617 -0.07263,-0.371811 -0.204479,-0.510339 l 0,0 z m -5.070472,12.440452 -9.6391519,0 0,-7.631986 4.8195429,-5.060331 4.796648,5.036317 c 9.14e-4,0.05758 0.0086,0.115495 0.02296,0.172228 l 0,7.483772 0,0 z m 0.859695,-8.887253 -4.666315,-4.899424 2.769815,-2.9081274 4.666315,4.8994244 -2.769815,2.908127 0,0 z m 0.632452,7.741329 0,-6.247349 2.290591,-2.405052 0,6.247415 -2.290591,2.404986 0,0 z"
         inkscape:connector-curvature="0" />
    </g>
  </g>
</svg>
