<?xml version="1.0" encoding="UTF-8" standalone="no"?>
<svg width="147px" height="43px" viewBox="0 0 147 43" version="1.1" xmlns="http://www.w3.org/2000/svg" xmlns:xlink="http://www.w3.org/1999/xlink" xmlns:sketch="http://www.bohemiancoding.com/sketch/ns">
    <!-- Generator: bin/sketchtool 1.4 (305) - http://www.bohemiancoding.com/sketch -->
    <title>logo + chamada</title>
    <desc>Created with bin/sketchtool.</desc>
    <defs></defs>
    <g id="Styler" stroke="none" stroke-width="1" fill="none" fill-rule="evenodd" sketch:type="MSPage">
        <g id="VD-420-Desktop-HD---head-scroll---form-aberto" sketch:type="MSArtboardGroup" transform="translate(-144.000000, -25.000000)" fill="#FFFFFF">
            <g id="Header" sketch:type="MSLayerGroup">
                <g id="logo-+-chamada" transform="translate(144.000000, 25.000000)" sketch:type="MSShapeGroup">
                    <path d="M16.8831322,0 L12.1876364,8.13993316 L7.49225094,0 L16.8831322,0" id="Fill-1"></path>
                    <path d="M13.4990398,9.39588689 L18.1945357,1.25595373 L22.8900316,9.39588689 L13.4990398,9.39588689" id="Fill-2"></path>
                    <path d="M10.8627588,10.6118252 L5.48185199,19.9399512 L0.101055597,10.6118252 L10.8627588,10.6118252" id="Fill-3"></path>
                    <path d="M22.8900316,10.6118252 L18.1945357,18.7517584 L13.4990398,10.6118252 L22.8900316,10.6118252" id="Fill-4"></path>
                    <path d="M7.49225094,20.0077121 L12.1876364,11.8677789 L16.8831322,20.0077121 L7.49225094,20.0077121" id="Fill-5"></path>
                    <path d="M16.8967168,21.3341902 L12.2012209,29.4741234 L7.50572502,21.3341902 L16.8967168,21.3341902" id="Fill-6"></path>
                    <path d="M40.6320811,10.4875784 L42.0506146,10.4875784 L35.0596657,29.1893728 L33.9092885,29.1893728 L26.943852,10.4875784 L28.336873,10.4875784 L33.0402104,23.2154679 C33.7558828,25.134329 34.2371946,26.5756581 34.4843666,27.5392339 C34.6547806,26.8995398 34.9913013,25.9062288 35.4941495,24.5586375 L40.6320811,10.4875784" id="Fill-7"></path>
                    <path d="M43.15074,11.421419 C43.15074,10.6027609 43.4191172,10.1933213 43.955982,10.1933213 C44.2200518,10.1933213 44.4266912,10.2999923 44.5759001,10.5131131 C44.7247776,10.726455 44.7994373,11.0292237 44.7994373,11.421419 C44.7994373,11.8049923 44.7247776,12.107982 44.5759001,12.3296144 C44.4266912,12.5513573 44.2200518,12.6621183 43.955982,12.6621183 C43.4191172,12.6621183 43.15074,12.2485887 43.15074,11.421419 L43.15074,11.421419 Z M43.3297686,15.284455 L44.5948963,15.284455 L44.5948963,29.1893728 L43.3297686,29.1893728 L43.3297686,15.284455 Z" id="Fill-8"></path>
                    <path d="M51.2420353,29.1893728 L45.8740503,15.284455 L47.1778332,15.284455 L50.7692276,24.7378226 C51.2463426,25.9488972 51.6041788,27.0063213 51.8427363,27.9102057 L51.9193839,27.9102057 C52.2688264,26.7505321 52.6266627,25.6843753 52.9928926,24.7121774 L56.5845079,15.284455 L57.8879594,15.284455 L52.5200849,29.1893728 L51.2420353,29.1893728" id="Fill-9"></path>
                    <path d="M67.60255,29.1893728 L67.2828167,26.9891877 L67.1805462,26.9891877 C66.481882,27.8845604 65.7640008,28.5178432 65.0271232,28.8887044 C64.2900248,29.2597866 63.4188482,29.445162 62.4133727,29.445162 C61.0500609,29.445162 59.9892532,29.095635 59.2310601,28.3962494 C58.4726461,27.6970848 58.0936048,26.7290874 58.0936048,25.4925887 C58.0936048,24.1364859 58.6578595,23.0834833 59.7869211,22.3329177 C60.9158723,21.5825733 62.5497701,21.1860668 64.6885041,21.1432879 L67.3339519,21.0664627 L67.3339519,20.1454447 C67.3339519,18.8237198 67.0655748,17.8258766 66.5289309,17.1522468 C65.9919557,16.478617 65.1271848,16.141581 63.9343974,16.141581 C62.6476228,16.141581 61.3143516,16.4997301 59.9340316,17.2161388 L59.461003,16.1160463 C60.9862246,15.3996375 62.4942171,15.0414884 63.9855327,15.0414884 C65.5105334,15.0414884 66.650308,15.4379949 67.4043043,16.2311183 C68.158411,17.0241311 68.5354643,18.2608509 68.5354643,19.9407249 L68.5354643,29.1893728 L67.60255,29.1893728 L67.60255,29.1893728 Z M62.4901307,28.2938895 C63.9727213,28.2938895 65.1420947,27.8698586 65.9984718,27.0211337 C66.854849,26.1726298 67.2828167,24.9936118 67.2828167,23.4841902 L67.2828167,22.1154859 L64.8546108,22.2178458 C62.903299,22.3116941 61.5123764,22.6164524 60.6816221,23.1323419 C59.8509782,23.6484524 59.4354906,24.4521877 59.4354906,25.5437686 C59.4354906,26.4136067 59.7016589,27.0894473 60.2343268,27.5711799 C60.7666634,28.0531337 61.5188926,28.2938895 62.4901307,28.2938895 L62.4901307,28.2938895 Z" id="Fill-10"></path>
                    <path d="M86.4934305,19.659401 C86.4934305,22.7978483 85.6711803,25.1706967 84.0267904,26.7781671 C82.38229,28.3857481 79.9667851,29.1893728 76.7800548,29.1893728 L72.3068813,29.1893728 L72.3068813,10.4875784 L77.355133,10.4875784 C80.3373223,10.4875784 82.6059376,11.2678792 84.160979,12.8283702 C85.7157994,14.3890823 86.4934305,16.665982 86.4934305,19.659401 L86.4934305,19.659401 Z M85.0747866,19.710581 C85.0747866,17.0327532 84.3952292,15.018054 83.0363351,13.6662622 C81.6771097,12.3148021 79.6813997,11.6387404 77.048432,11.6387404 L73.6104433,11.6387404 L73.6104433,28.0381003 L76.7035177,28.0381003 C82.2841059,28.0381003 85.0747866,25.2622237 85.0747866,19.710581 L85.0747866,19.710581 Z" id="Fill-11"></path>
                    <path d="M95.0319106,29.445162 C93.0126762,29.445162 91.4384177,28.8228226 90.309577,27.5775913 C89.180405,26.332581 88.6160398,24.5887044 88.6160398,22.3456298 C88.6160398,20.1284216 89.1611878,18.352599 90.2520361,17.0178303 C91.3426634,15.6831722 92.8122216,15.0158432 94.6613734,15.0158432 C96.2972592,15.0158432 97.5880098,15.5873342 98.5339564,16.7299846 C99.4795718,17.872856 99.9527107,19.424946 99.9527107,21.3862545 L99.9527107,22.4096324 L89.9452246,22.4096324 C89.9623434,24.319982 90.4073193,25.7783342 91.2809256,26.7844679 C92.1540902,27.7909332 93.4044185,28.2938895 95.0319106,28.2938895 C95.8244515,28.2938895 96.5209068,28.238509 97.1217183,28.1276375 C97.7224192,28.0169871 98.4828212,27.778 99.4030346,27.4112288 L99.4030346,28.5626118 C98.6188873,28.9037378 97.8948212,29.1362031 97.2301736,29.2597866 C96.5656364,29.3832596 95.8328452,29.445162 95.0319106,29.445162 L95.0319106,29.445162 Z M94.6613734,16.141581 C93.3234636,16.141581 92.2498445,16.582856 91.4405162,17.4655167 C90.6309669,18.3481774 90.1581593,19.6210437 90.0218723,21.2838946 L98.6104936,21.2838946 C98.6104936,19.6721131 98.2610511,18.4121799 97.5626078,17.503874 C96.8639437,16.5956787 95.8966814,16.141581 94.6613734,16.141581 L94.6613734,16.141581 Z" id="Fill-12"></path>
                    <path d="M108.286871,29.445162 C106.301432,29.445162 104.746612,28.8185116 103.621857,27.5647686 C102.497213,26.3112468 101.934836,24.5630591 101.934836,22.3200951 C101.934836,20.0175501 102.518308,18.2247044 103.685693,16.9410051 C104.852968,15.6576375 106.45053,15.0158432 108.4786,15.0158432 C109.679892,15.0158432 110.830269,15.2249846 111.92929,15.6426041 L111.584155,16.7683419 C110.382863,16.367635 109.339064,16.1671157 108.452977,16.1671157 C106.748617,16.1671157 105.457756,16.693838 104.580284,17.7469512 C103.702591,18.8002853 103.264021,20.3162288 103.264021,22.2944499 C103.264021,24.1707532 103.702591,25.6396067 104.580284,26.7013419 C105.457756,27.7630771 106.684781,28.2938895 108.261137,28.2938895 C109.522179,28.2938895 110.693651,28.0681671 111.775884,27.6159486 L111.775884,28.7927558 C110.889577,29.2278406 109.72672,29.445162 108.286871,29.445162" id="Fill-13"></path>
                    <path d="M125.618403,22.2178458 C125.618403,24.4863445 125.069058,26.2580771 123.969816,27.5328226 C122.870684,28.8077892 121.353856,29.445162 119.419774,29.445162 C118.201253,29.445162 117.127634,29.1509049 116.199027,28.5626118 C115.270199,27.9740977 114.558834,27.1299049 114.0646,26.0297018 C113.570367,24.9297198 113.323415,23.6590643 113.323415,22.2178458 C113.323415,19.949347 113.873092,18.1819254 114.972113,16.9154704 C116.071355,15.649126 117.579347,15.0158432 119.496642,15.0158432 C121.404992,15.0158432 122.902713,15.6576375 123.988923,16.9410051 C125.075243,18.2247044 125.618403,19.9836144 125.618403,22.2178458 L125.618403,22.2178458 Z M114.6526,22.2178458 C114.6526,24.1281954 115.072174,25.618383 115.911543,26.6885193 C116.750581,27.7588766 117.937294,28.2938895 119.470909,28.2938895 C121.004635,28.2938895 122.191017,27.7588766 123.030385,26.6885193 C123.869644,25.618383 124.289218,24.1281954 124.289218,22.2178458 C124.289218,20.298874 123.865337,18.8108972 123.017574,17.7533625 C122.169701,16.6960488 120.979122,16.1671157 119.445507,16.1671157 C117.911781,16.1671157 116.729486,16.693838 115.898732,17.7469512 C115.068088,18.8002853 114.6526,20.2905835 114.6526,22.2178458 L114.6526,22.2178458 Z" id="Fill-14"></path>
                    <path d="M133.888727,15.0158432 C134.476727,15.0158432 135.107026,15.0756452 135.780289,15.1949177 L135.537645,16.4101928 C134.958038,16.2652751 134.357227,16.1927609 133.735321,16.1927609 C132.550927,16.1927609 131.579579,16.6960488 130.821385,17.7021825 C130.062861,18.7086478 129.68393,19.9791928 129.68393,21.5141491 L129.68393,29.1893728 L128.418582,29.1893728 L128.418582,15.284455 L129.49209,15.284455 L129.620094,17.7917198 L129.709553,17.7917198 C130.280103,16.7683419 130.889529,16.050054 131.537058,15.6363033 C132.184587,15.2226632 132.968513,15.0158432 133.888727,15.0158432" id="Fill-15"></path>
                    <path d="M145.993089,29.1893728 L145.673576,26.9891877 L145.571306,26.9891877 C144.872642,27.8845604 144.15476,28.5178432 143.417662,28.8887044 C142.680674,29.2597866 141.809387,29.445162 140.804132,29.445162 C139.44071,29.445162 138.380013,29.095635 137.62182,28.3962494 C136.863185,27.6970848 136.484144,26.7290874 136.484144,25.4925887 C136.484144,24.1364859 137.048619,23.0834833 138.177681,22.3329177 C139.306521,21.5825733 140.940309,21.1860668 143.079043,21.1432879 L145.724711,21.0664627 L145.724711,20.1454447 C145.724711,18.8237198 145.456334,17.8258766 144.91947,17.1522468 C144.382715,16.478617 143.517834,16.141581 142.325157,16.141581 C141.038382,16.141581 139.70489,16.4997301 138.32457,17.2161388 L137.851763,16.1160463 C139.376874,15.3996375 140.885087,15.0414884 142.376292,15.0414884 C143.901293,15.0414884 145.040847,15.4379949 145.795064,16.2311183 C146.549171,17.0241311 146.926224,18.2608509 146.926224,19.9407249 L146.926224,29.1893728 L145.993089,29.1893728 L145.993089,29.1893728 Z M140.88078,28.2938895 C142.36337,28.2938895 143.532854,27.8698586 144.389011,27.0211337 C145.245388,26.1726298 145.673576,24.9936118 145.673576,23.4841902 L145.673576,22.1154859 L143.24537,22.2178458 C141.294059,22.3116941 139.903136,22.6164524 139.072271,23.1323419 C138.241517,23.6484524 137.82625,24.4521877 137.82625,25.5437686 C137.82625,26.4136067 138.092529,27.0894473 138.625086,27.5711799 C139.157423,28.0531337 139.909431,28.2938895 140.88078,28.2938895 L140.88078,28.2938895 Z" id="Fill-16"></path>
                    <path d="M6.23054696,40.2996221 C6.14429076,41.0913085 5.85559204,41.7228226 5.36489256,42.1941645 C4.87419309,42.665617 4.19551916,42.9011774 3.3292021,42.9011774 C2.42323591,42.9011774 1.69696093,42.5918869 1.15059805,41.9728638 C0.604014275,41.3539512 0.330888054,40.5478946 0.330888054,39.5548046 L0.330888054,38.1676401 C0.330888054,37.1781979 0.604014275,36.3721414 1.15059805,35.749581 C1.69696093,35.1271311 2.42323591,34.8158509 3.3292021,34.8158509 C4.20998723,34.8158509 4.89219534,35.043563 5.375716,35.4986555 C5.85934711,35.9538586 6.14429076,36.5988586 6.23054696,37.4336555 L5.23291285,37.4336555 C5.14290158,36.8362982 4.95150338,36.3856272 4.65849737,36.0815321 C4.36549136,35.7775476 3.92250338,35.6254447 3.3292021,35.6254447 C2.7108302,35.6254447 2.22278137,35.8638792 1.8650556,36.3406375 C1.50732983,36.8173959 1.32852216,37.4228226 1.32852216,38.1568072 L1.32852216,39.5548046 C1.32852216,40.2960848 1.50732983,40.9051594 1.8650556,41.3818072 C2.22278137,41.8586761 2.7108302,42.097 3.3292021,42.097 C3.92592712,42.097 4.37001953,41.9495398 4.66125845,41.6543985 C4.95249737,41.3593676 5.14290158,40.9078123 5.23291285,40.2996221 L6.23054696,40.2996221" id="Fill-17"></path>
                    <path d="M10.5235875,37.8491748 L9.94122014,37.8167866 C9.63562359,37.8167866 9.38403381,37.8869794 9.1862299,38.027365 C8.98853644,38.1676401 8.83568295,38.3691542 8.72777986,38.6317969 L8.72777986,42.787874 L7.72473403,42.787874 L7.72473403,36.9478329 L8.61998723,36.9478329 L8.71706687,37.7952314 L8.73319159,37.8006478 C8.89499098,37.4984319 9.09820661,37.2627609 9.34261758,37.0935244 C9.58713899,36.924509 9.87473328,36.839946 10.2054005,36.839946 C10.2916566,36.839946 10.3771397,36.8462468 10.4617393,36.8587378 C10.5460075,36.8714499 10.6117213,36.8849357 10.6584388,36.8993059 L10.5235875,37.8491748" id="Fill-18"></path>
                    <path d="M11.9156146,34.3678329 L12.9132487,34.3678329 L12.9132487,35.4365321 L11.9156146,35.4365321 L11.9156146,34.3678329 Z M11.9156146,36.9478329 L12.9132487,36.9478329 L12.9132487,42.787874 L11.9156146,42.787874 L11.9156146,36.9478329 Z" id="Fill-19"></path>
                    <path d="M17.2225244,42.8958715 C16.4028144,42.8958715 15.7557273,42.6304653 15.2811525,42.099653 C14.8065778,41.5690617 14.5693456,40.8647018 14.5693456,39.9865733 L14.5693456,39.7437172 C14.5693456,38.8945501 14.812873,38.1982596 15.3000383,37.6549563 C15.7870932,37.111653 16.3740992,36.839946 17.060725,36.839946 C17.8517198,36.839946 18.4457941,37.0719692 18.8430586,37.536126 C19.2403231,38.0003933 19.4390105,38.6355553 19.4390105,39.4415013 L19.4390105,40.0945707 L15.5723914,40.0945707 C15.5867491,40.691928 15.7350744,41.1739923 16.0172569,41.5410951 C16.2994395,41.9080874 16.7013426,42.0915835 17.2225244,42.0915835 C17.5856619,42.0915835 17.8993208,42.0412879 18.1636116,41.9404756 C18.4277919,41.8397738 18.666018,41.6976195 18.8781796,41.5141234 L19.2717994,42.1780257 C19.0596379,42.3867249 18.7872847,42.5585039 18.4548505,42.693473 C18.1221953,42.8283316 17.7114568,42.8958715 17.2225244,42.8958715 L17.2225244,42.8958715 Z M17.060725,37.6495398 C16.6832299,37.6495398 16.3641593,37.8016427 16.1036236,38.1056272 C15.842867,38.4097224 15.6766499,38.8045707 15.6047513,39.2902828 L18.4413764,39.2902828 L18.4413764,39.1500077 C18.4413764,38.7145913 18.3262945,38.3556684 18.0961307,38.0732391 C17.8660774,37.7908098 17.5209421,37.6495398 17.060725,37.6495398 L17.060725,37.6495398 Z" id="Fill-20"></path>
                    <path d="M27.4861285,42.787874 C27.450124,42.6043779 27.4231758,42.4532699 27.405284,42.3344396 C27.3871713,42.2157198 27.3745808,42.0915835 27.3675124,41.9620308 C27.158885,42.235617 26.900006,42.4595707 26.5908753,42.6341131 C26.2816341,42.808545 25.9419106,42.8958715 25.5717047,42.8958715 C24.9569775,42.8958715 24.4939992,42.7438792 24.182991,42.4397841 C23.8719827,42.1357995 23.716589,41.7083419 23.716589,41.1578535 C23.716589,40.589347 23.9394636,40.1503933 24.3853231,39.8408817 C24.8309617,39.5314807 25.449444,39.3767249 26.2404388,39.3767249 L27.3675124,39.3767249 L27.3675124,38.7830154 C27.3675124,38.4267455 27.2577318,38.1487378 27.0385019,37.9491028 C26.8191615,37.7493573 26.5063862,37.6495398 26.1001758,37.6495398 C25.7226807,37.6495398 25.4179677,37.7385244 25.1860368,37.9167147 C24.9541059,38.0947943 24.8382509,38.3116735 24.8382509,38.5671311 L23.8406168,38.5671311 C23.8406168,38.1173445 24.054435,37.7169692 24.4824027,37.3661157 C24.9101495,37.0152622 25.4673358,36.839946 26.1540721,36.839946 C26.8262299,36.839946 27.3629842,37.0055347 27.7637829,37.336491 C28.164692,37.6675578 28.3651465,38.1532699 28.3651465,38.7937378 L28.3651465,41.6112879 C28.3651465,41.8199871 28.3759699,42.0197326 28.3975064,42.2103033 C28.4190428,42.4010951 28.4585815,42.593545 28.5161225,42.787874 L27.4861285,42.787874 L27.4861285,42.787874 Z M25.717269,42.0376401 C26.0911195,42.0376401 26.4263148,41.9513085 26.7229654,41.7785347 C27.0195056,41.6058715 27.2344282,41.393635 27.3675124,41.1417147 L27.3675124,40.067599 L26.2080789,40.067599 C25.7443276,40.067599 25.3793125,40.1764807 25.1133651,40.3941337 C24.8471968,40.6118972 24.7142231,40.8736555 24.7142231,41.1794087 C24.7142231,41.449347 24.7977183,41.6598149 24.9649294,41.8109229 C25.1321405,41.9620308 25.3829572,42.0376401 25.717269,42.0376401 L25.717269,42.0376401 Z" id="Fill-21"></path>
                    <path d="M35.5170113,42.0915835 C35.8872171,42.0915835 36.2081653,41.9836967 36.4796349,41.7678123 C36.7511044,41.5518175 36.8884959,41.2784524 36.8921405,40.9473856 L37.84129,40.9473856 C37.8376454,41.4799666 37.6067085,41.9378226 37.1482585,42.3209537 C36.6899189,42.7041954 36.1460962,42.8958715 35.5170113,42.8958715 C34.6612968,42.8958715 34.0140992,42.6232802 33.5756394,42.0780977 C33.1369587,41.5329152 32.9177288,40.8339717 32.9177288,39.9811568 L32.9177288,39.7545501 C32.9177288,38.905383 33.1369587,38.2073239 33.5756394,37.6602622 C34.0140992,37.1134216 34.6612968,36.839946 35.5170113,36.839946 C36.2036371,36.839946 36.7618174,37.0379229 37.1914418,37.4336555 C37.6210661,37.8294987 37.8376454,38.3368766 37.84129,38.9556787 L36.8921405,38.9556787 C36.8884959,38.5815013 36.7590563,38.2702211 36.5038219,38.0219486 C36.2485875,37.7736761 35.919577,37.6495398 35.5170113,37.6495398 C34.9381781,37.6495398 34.5274395,37.8501697 34.2847956,38.2513188 C34.0420413,38.6525784 33.9207746,39.1536555 33.9207746,39.7545501 L33.9207746,39.9811568 C33.9207746,40.5965321 34.0411578,41.1021414 34.2820346,41.497874 C34.5229113,41.8937172 34.9345334,42.0915835 35.5170113,42.0915835" id="Fill-22"></path>
                    <path d="M42.8731961,42.787874 C42.837302,42.6043779 42.8103539,42.4532699 42.7923516,42.3344396 C42.7743494,42.2157198 42.7618693,42.0915835 42.75458,41.9620308 C42.5460631,42.235617 42.2872945,42.4595707 41.9780533,42.6341131 C41.6688122,42.808545 41.3290887,42.8958715 40.9587724,42.8958715 C40.3440451,42.8958715 39.8810669,42.7438792 39.570169,42.4397841 C39.2591608,42.1357995 39.1036566,41.7083419 39.1036566,41.1578535 C39.1036566,40.589347 39.3266416,40.1503933 39.7723907,39.8408817 C40.2181397,39.5314807 40.8366221,39.3767249 41.6275064,39.3767249 L42.75458,39.3767249 L42.75458,38.7830154 C42.75458,38.4267455 42.6449098,38.1487378 42.4255695,37.9491028 C42.2063396,37.7493573 41.8935642,37.6495398 41.4872434,37.6495398 C41.1097483,37.6495398 40.8051458,37.7385244 40.5732149,37.9167147 C40.3413944,38.0947943 40.225429,38.3116735 40.225429,38.5671311 L39.2277949,38.5671311 C39.2277949,38.1173445 39.4416131,37.7169692 39.8694703,37.3661157 C40.2973276,37.0152622 40.8545139,36.839946 41.5412502,36.839946 C42.2135184,36.839946 42.7500518,37.0055347 43.1509609,37.336491 C43.5517596,37.6675578 43.7522141,38.1532699 43.7522141,38.7937378 L43.7522141,41.6112879 C43.7522141,41.8199871 43.7630376,42.0197326 43.784574,42.2103033 C43.8062209,42.4010951 43.8457596,42.593545 43.9033005,42.787874 L42.8731961,42.787874 L42.8731961,42.787874 Z M41.104447,42.0376401 C41.478408,42.0376401 41.8136033,41.9513085 42.1101435,41.7785347 C42.4067941,41.6058715 42.6216063,41.393635 42.75458,41.1417147 L42.75458,40.067599 L41.5951465,40.067599 C41.1313952,40.067599 40.7664906,40.1764807 40.5004328,40.3941337 C40.2343749,40.6118972 40.1014012,40.8736555 40.1014012,41.1794087 C40.1014012,41.449347 40.1850068,41.6598149 40.3521074,41.8109229 C40.5193186,41.9620308 40.7700248,42.0376401 41.104447,42.0376401 L41.104447,42.0376401 Z" id="Fill-23"></path>
                    <path d="M48.9838017,41.2441851 C48.9838017,40.9995604 48.8939008,40.8006992 48.7140992,40.6478226 C48.534408,40.494946 48.183861,40.3627404 47.6625687,40.2510951 C46.943583,40.0963393 46.4105838,39.8894087 46.0636814,39.6304139 C45.7165582,39.3713085 45.5431623,39.0096221 45.5431623,38.5454653 C45.5431623,38.063401 45.7391991,37.6586041 46.1309414,37.3310746 C46.5229046,37.0036555 47.0459639,36.839946 47.7002299,36.839946 C48.3905004,36.839946 48.9334395,37.0117249 49.3288264,37.3552828 C49.7243238,37.6990617 49.9221277,38.1335938 49.9221277,38.6588792 L48.9243832,38.6588792 C48.9243832,38.3925887 48.8148234,38.1578021 48.5954831,37.9544087 C48.3762532,37.7512365 48.077725,37.6495398 47.7002299,37.6495398 C47.304843,37.6495398 47.012831,37.7332185 46.8240834,37.9004653 C46.6353358,38.0678226 46.5407964,38.2721003 46.5407964,38.5130771 C46.5407964,38.7542751 46.6217513,38.9404242 46.7835507,39.0717455 C46.9453501,39.2030668 47.2887183,39.3245501 47.8135447,39.4360848 C48.5577115,39.5980257 49.1051788,39.8121414 49.4557258,40.0783213 C49.8062727,40.3447224 49.9814358,40.7098355 49.9814358,41.1739923 C49.9814358,41.6993882 49.7773366,42.1177815 49.3694696,42.4289512 C48.9612712,42.7402314 48.4139144,42.8958715 47.7272885,42.8958715 C46.9759429,42.8958715 46.390704,42.711491 45.9720135,42.3426195 C45.5531022,41.9738586 45.3437017,41.5248458 45.3437017,40.9959126 L46.3413358,40.9959126 C46.3628723,41.3882185 46.5067799,41.6688792 46.7727273,41.8378946 C47.0387851,42.0071311 47.3569722,42.0915835 47.7272885,42.0915835 C48.1299647,42.0915835 48.439979,42.0152005 48.6575522,41.8622134 C48.875015,41.7093368 48.9838017,41.5032905 48.9838017,41.2441851" id="Fill-24"></path>
                    <path d="M55.1860751,42.787874 C55.1499602,42.6043779 55.123012,42.4532699 55.1051202,42.3344396 C55.0870075,42.2157198 55.0745274,42.0915835 55.0674591,41.9620308 C54.8588317,42.235617 54.5999527,42.4595707 54.2908219,42.6341131 C53.9814703,42.808545 53.6417468,42.8958715 53.2716514,42.8958715 C52.6568137,42.8958715 52.1939459,42.7438792 51.8829376,42.4397841 C51.5719294,42.1357995 51.4165357,41.7083419 51.4165357,41.1578535 C51.4165357,40.589347 51.6392998,40.1503933 52.0851593,39.8408817 C52.5309083,39.5314807 53.1492802,39.3767249 53.940275,39.3767249 L55.0674591,39.3767249 L55.0674591,38.7830154 C55.0674591,38.4267455 54.957568,38.1487378 54.7384485,37.9491028 C54.5191082,37.7493573 54.2063328,37.6495398 53.8001225,37.6495398 C53.4226273,37.6495398 53.1178039,37.7385244 52.8859835,37.9167147 C52.6540526,38.0947943 52.5381976,38.3116735 52.5381976,38.5671311 L51.5405635,38.5671311 C51.5405635,38.1173445 51.7542712,37.7169692 52.1822389,37.3661157 C52.6099857,37.0152622 53.1671721,36.839946 53.8540188,36.839946 C54.5261766,36.839946 55.0628204,37.0055347 55.4636191,37.336491 C55.8645282,37.6675578 56.0650932,38.1532699 56.0650932,38.7937378 L56.0650932,41.6112879 C56.0650932,41.8199871 56.0758062,42.0197326 56.097453,42.2103033 C56.1189895,42.4010951 56.1584177,42.593545 56.2160691,42.787874 L55.1860751,42.787874 L55.1860751,42.787874 Z M53.4172156,42.0376401 C53.7910661,42.0376401 54.1262615,41.9513085 54.4229121,41.7785347 C54.7194523,41.6058715 54.9342645,41.393635 55.0674591,41.1417147 L55.0674591,40.067599 L53.9079151,40.067599 C53.4441638,40.067599 53.0791488,40.1764807 52.8132014,40.3941337 C52.5470331,40.6118972 52.4141698,40.8736555 52.4141698,41.1794087 C52.4141698,41.449347 52.4976649,41.6598149 52.664876,41.8109229 C52.8319767,41.9620308 53.0829038,42.0376401 53.4172156,42.0376401 L53.4172156,42.0376401 Z" id="Fill-25"></path>
                    <path d="M60.6338002,39.9704344 C60.6338002,39.0133805 60.8296161,38.2523136 61.2215793,37.6873445 C61.613432,37.1223753 62.1761405,36.839946 62.9094838,36.839946 C63.2689767,36.839946 63.579985,36.9046118 63.8425086,37.0341645 C64.1048114,37.1637172 64.3295635,37.354509 64.516544,37.6063188 L64.5327791,37.6009023 L64.5327791,34.3678329 L65.5304132,34.3678329 L65.5304132,42.787874 L64.6621082,42.787874 L64.575852,42.0591954 C64.3816927,42.339856 64.1479947,42.5495501 63.8748685,42.6880566 C63.6015214,42.826563 63.276266,42.8958715 62.8987708,42.8958715 C62.1761405,42.8958715 61.6179602,42.6421825 61.2243403,42.1348046 C60.8306101,41.6274267 60.6338002,40.9437378 60.6338002,40.0837378 L60.6338002,39.9704344 L60.6338002,39.9704344 Z M61.6314343,40.0837378 C61.6314343,40.6954653 61.7528114,41.178635 61.9954553,41.5329152 C62.2380992,41.887527 62.6218896,42.0646118 63.1468264,42.0646118 C63.4846724,42.0646118 63.7633208,41.9908817 63.9826612,41.8433111 C64.2018911,41.6958509 64.3852269,41.485383 64.5327791,41.2117969 L64.5327791,38.5023548 C64.3888715,38.2432494 64.2055357,38.0399666 63.9826612,37.8923959 C63.7597866,37.7449357 63.4846724,37.6710951 63.1575394,37.6710951 C62.6290684,37.6710951 62.2425169,37.881563 61.9981059,38.3026093 C61.753695,38.7236555 61.6314343,39.2795604 61.6314343,39.9704344 L61.6314343,40.0837378 L61.6314343,40.0837378 Z" id="Fill-26"></path>
                    <path d="M67.1217904,39.8084936 C67.1217904,38.9269383 67.3518437,38.211856 67.8120609,37.6630257 C68.272278,37.1143059 68.9086521,36.839946 69.7210729,36.839946 C70.5407829,36.839946 71.1815748,37.1143059 71.643559,37.6630257 C72.1055432,38.211856 72.3365905,38.9269383 72.3365905,39.8084936 L72.3365905,39.9380463 C72.3365905,40.8232494 72.1064267,41.5375578 71.6463201,42.0808612 C71.1861029,42.6242751 70.5479617,42.8958715 69.7318963,42.8958715 C68.9121863,42.8958715 68.272278,42.6242751 67.8120609,42.0808612 C67.3518437,41.5375578 67.1217904,40.8232494 67.1217904,39.9380463 L67.1217904,39.8084936 L67.1217904,39.8084936 Z M68.1248362,39.9380463 C68.1248362,40.5749769 68.2578099,41.0930771 68.5238678,41.4924576 C68.7899256,41.8919486 69.1926018,42.0915835 69.7318963,42.0915835 C70.2639016,42.0915835 70.6648107,41.8910643 70.9345131,41.4898046 C71.2041052,41.0886555 71.3389564,40.571329 71.3389564,39.9380463 L71.3389564,39.8084936 C71.3389564,39.1823959 71.2031112,38.6660643 70.9317521,38.2593882 C70.6602825,37.8529332 70.2568332,37.6495398 69.7210729,37.6495398 C69.1890676,37.6495398 68.7899256,37.8529332 68.5238678,38.2593882 C68.2578099,38.6660643 68.1248362,39.1823959 68.1248362,39.8084936 L68.1248362,39.9380463 L68.1248362,39.9380463 Z" id="Fill-27"></path>
                    <path d="M77.3037769,41.2441851 C77.3037769,40.9995604 77.213876,40.8006992 77.0341848,40.6478226 C76.8543832,40.494946 76.5038362,40.3627404 75.9826544,40.2510951 C75.2635582,40.0963393 74.730559,39.8894087 74.3836566,39.6304139 C74.0366439,39.3713085 73.8632479,39.0096221 73.8632479,38.5454653 C73.8632479,38.063401 74.0590639,37.6586041 74.451027,37.3310746 C74.8428798,37.0036555 75.3660496,36.839946 76.0203156,36.839946 C76.710586,36.839946 77.2534147,37.0117249 77.6489121,37.3552828 C78.044299,37.6990617 78.2421029,38.1335938 78.2421029,38.6588792 L77.2444688,38.6588792 C77.2444688,38.3925887 77.1347986,38.1578021 76.9155687,37.9544087 C76.696118,37.7512365 76.3978107,37.6495398 76.0203156,37.6495398 C75.6248182,37.6495398 75.3328062,37.7332185 75.1440586,37.9004653 C74.955311,38.0678226 74.860882,38.2721003 74.860882,38.5130771 C74.860882,38.7542751 74.941837,38.9404242 75.1035259,39.0717455 C75.2653253,39.2030668 75.6086935,39.3245501 76.1336304,39.4360848 C76.8777971,39.5980257 77.425154,39.8121414 77.775701,40.0783213 C78.1262479,40.3447224 78.3015214,40.7098355 78.3015214,41.1739923 C78.3015214,41.6993882 78.0974222,42.1177815 77.6893343,42.4289512 C77.2812464,42.7402314 76.7338896,42.8958715 76.0472637,42.8958715 C75.2959181,42.8958715 74.7107896,42.711491 74.2919887,42.3426195 C73.8730774,41.9738586 73.6636769,41.5248458 73.6636769,40.9959126 L74.6614215,40.9959126 C74.6829579,41.3882185 74.8267551,41.6688792 75.0928129,41.8378946 C75.3587603,42.0071311 75.6769474,42.0915835 76.0472637,42.0915835 C76.4499399,42.0915835 76.7600646,42.0152005 76.9775274,41.8622134 C77.1949902,41.7093368 77.3037769,41.5032905 77.3037769,41.2441851" id="Fill-28"></path>
                    <path d="M86.3000443,41.2441851 C86.3000443,40.9995604 86.2101435,40.8006992 86.0304523,40.6478226 C85.8506506,40.494946 85.5001037,40.3627404 84.9788114,40.2510951 C84.2598257,40.0963393 83.7268264,39.8894087 83.3799241,39.6304139 C83.0329113,39.3713085 82.8595154,39.0096221 82.8595154,38.5454653 C82.8595154,38.063401 83.0553313,37.6586041 83.4472945,37.3310746 C83.8391473,37.0036555 84.3623171,36.839946 85.016583,36.839946 C85.7068535,36.839946 86.2496822,37.0117249 86.6451796,37.3552828 C87.0405665,37.6990617 87.2383704,38.1335938 87.2383704,38.6588792 L86.2407363,38.6588792 C86.2407363,38.3925887 86.1310661,38.1578021 85.9118362,37.9544087 C85.6923854,37.7512365 85.3940781,37.6495398 85.016583,37.6495398 C84.6210856,37.6495398 84.3290736,37.7332185 84.1403261,37.9004653 C83.9515785,38.0678226 83.8571495,38.2721003 83.8571495,38.5130771 C83.8571495,38.7542751 83.9381044,38.9404242 84.0997934,39.0717455 C84.2615928,39.2030668 84.6049609,39.3245501 85.1298978,39.4360848 C85.8740646,39.5980257 86.4214215,39.8121414 86.7719684,40.0783213 C87.1225154,40.3447224 87.2977889,40.7098355 87.2977889,41.1739923 C87.2977889,41.6993882 87.0936897,42.1177815 86.6857122,42.4289512 C86.2775139,42.7402314 85.730157,42.8958715 85.0435312,42.8958715 C84.2921856,42.8958715 83.7070571,42.711491 83.2882562,42.3426195 C82.8693449,41.9738586 82.6599444,41.5248458 82.6599444,40.9959126 L83.657689,40.9959126 C83.6792254,41.3882185 83.8230225,41.6688792 84.0890804,41.8378946 C84.3550278,42.0071311 84.6732149,42.0915835 85.0435312,42.0915835 C85.4462074,42.0915835 85.7563321,42.0152005 85.9737949,41.8622134 C86.1912577,41.7093368 86.3000443,41.5032905 86.3000443,41.2441851" id="Fill-29"></path>
                    <path d="M91.299701,42.8958715 C90.479991,42.8958715 89.8329038,42.6304653 89.3583291,42.099653 C88.8837543,41.5690617 88.6465222,40.8647018 88.6465222,39.9865733 L88.6465222,39.7437172 C88.6465222,38.8945501 88.8900496,38.1982596 89.3772149,37.6549563 C89.8642697,37.111653 90.4511653,36.839946 91.1379016,36.839946 C91.9287859,36.839946 92.5228603,37.0719692 92.9202352,37.536126 C93.3173892,38.0003933 93.5160766,38.6355553 93.5160766,39.4415013 L93.5160766,40.0945707 L89.649568,40.0945707 C89.6638152,40.691928 89.8121405,41.1739923 90.0944335,41.5410951 C90.3765056,41.9080874 90.7782983,42.0915835 91.299701,42.0915835 C91.662728,42.0915835 91.9764974,42.0412879 92.2406777,41.9404756 C92.5049684,41.8397738 92.7430841,41.6976195 92.9552457,41.5141234 L93.348976,42.1780257 C93.1368144,42.3867249 92.8644613,42.5585039 92.5319166,42.693473 C92.1992615,42.8283316 91.7886334,42.8958715 91.299701,42.8958715 L91.299701,42.8958715 Z M91.1379016,37.6495398 C90.7604065,37.6495398 90.4412254,37.8016427 90.1806897,38.1056272 C89.9200436,38.4097224 89.753716,38.8045707 89.6819279,39.2902828 L92.5184425,39.2902828 L92.5184425,39.1500077 C92.5184425,38.7145913 92.4033606,38.3556684 92.1733073,38.0732391 C91.9431435,37.7908098 91.5980083,37.6495398 91.1379016,37.6495398 L91.1379016,37.6495398 Z" id="Fill-30"></path>
                    <path d="M98.6937678,41.9350591 L98.6776431,41.9296427 C98.4978415,42.2426915 98.2659106,42.4821208 97.9819609,42.647599 C97.6979008,42.8130771 97.3599444,42.8958715 96.9680917,42.8958715 C96.3210045,42.8958715 95.8230158,42.6971208 95.4743464,42.2993985 C95.1255665,41.9017866 94.951287,41.2640823 94.951287,40.3860643 L94.951287,36.9478329 L95.9543328,36.9478329 L95.9543328,40.3967866 C95.9543328,41.037365 96.0476574,41.4754344 96.2347483,41.7111054 C96.4216183,41.9468869 96.7181585,42.0646118 97.1244793,42.0646118 C97.5271555,42.0646118 97.8515274,41.9863496 98.0979264,41.8298252 C98.3441044,41.6733008 98.5319684,41.4458098 98.661408,41.1470206 L98.661408,36.9478329 L99.6590421,36.9478329 L99.6590421,42.787874 L98.7638993,42.787874 L98.6937678,41.9350591" id="Fill-31"></path>
                    <path d="M104.89063,41.2441851 C104.89063,40.9995604 104.800618,40.8006992 104.620927,40.6478226 C104.441125,40.494946 104.090579,40.3627404 103.569397,40.2510951 C102.850301,40.0963393 102.317301,39.8894087 101.970399,39.6304139 C101.623386,39.3713085 101.44999,39.0096221 101.44999,38.5454653 C101.44999,38.063401 101.645917,37.6586041 102.037769,37.3310746 C102.429622,37.0036555 102.952792,36.839946 103.607058,36.839946 C104.297328,36.839946 104.840267,37.0117249 105.235765,37.3552828 C105.631152,37.6990617 105.828956,38.1335938 105.828956,38.6588792 L104.831211,38.6588792 C104.831211,38.3925887 104.721541,38.1578021 104.502311,37.9544087 C104.282971,37.7512365 103.984663,37.6495398 103.607058,37.6495398 C103.21156,37.6495398 102.919548,37.7332185 102.730801,37.9004653 C102.542053,38.0678226 102.447624,38.2721003 102.447624,38.5130771 C102.447624,38.7542751 102.528579,38.9404242 102.690379,39.0717455 C102.852178,39.2030668 103.195436,39.3245501 103.720373,39.4360848 C104.464539,39.5980257 105.011896,39.8121414 105.362443,40.0783213 C105.71299,40.3447224 105.888264,40.7098355 105.888264,41.1739923 C105.888264,41.6993882 105.684165,42.1177815 105.276187,42.4289512 C104.867989,42.7402314 104.320632,42.8958715 103.634116,42.8958715 C102.88266,42.8958715 102.297532,42.711491 101.878731,42.3426195 C101.45982,41.9738586 101.25053,41.5248458 101.25053,40.9959126 L102.248164,40.9959126 C102.2697,41.3882185 102.413497,41.6688792 102.679555,41.8378946 C102.945503,42.0071311 103.26369,42.0915835 103.634116,42.0915835 C104.036682,42.0915835 104.346807,42.0152005 104.56438,41.8622134 C104.781733,41.7093368 104.89063,41.5032905 104.89063,41.2441851" id="Fill-32"></path>
                    <path d="M113.886787,41.2441851 C113.886787,40.9995604 113.796775,40.8006992 113.617084,40.6478226 C113.437282,40.494946 113.086736,40.3627404 112.565554,40.2510951 C111.846458,40.0963393 111.313458,39.8894087 110.966556,39.6304139 C110.619654,39.3713085 110.446147,39.0096221 110.446147,38.5454653 C110.446147,38.063401 110.642074,37.6586041 111.034037,37.3310746 C111.425779,37.0036555 111.948949,36.839946 112.603215,36.839946 C113.293596,36.839946 113.836424,37.0117249 114.231922,37.3552828 C114.627309,37.6990617 114.825113,38.1335938 114.825113,38.6588792 L113.827479,38.6588792 C113.827479,38.3925887 113.717698,38.1578021 113.498468,37.9544087 C113.279128,37.7512365 112.98071,37.6495398 112.603215,37.6495398 C112.207828,37.6495398 111.915705,37.7332185 111.726958,37.9004653 C111.53821,38.0678226 111.443781,38.2721003 111.443781,38.5130771 C111.443781,38.7542751 111.524736,38.9404242 111.686536,39.0717455 C111.848335,39.2030668 112.191593,39.3245501 112.71653,39.4360848 C113.460696,39.5980257 114.008053,39.8121414 114.3586,40.0783213 C114.709147,40.3447224 114.884421,40.7098355 114.884421,41.1739923 C114.884421,41.6993882 114.680322,42.1177815 114.272344,42.4289512 C113.864256,42.7402314 113.316899,42.8958715 112.630273,42.8958715 C111.878817,42.8958715 111.293689,42.711491 110.874888,42.3426195 C110.455977,41.9738586 110.246687,41.5248458 110.246687,40.9959126 L111.244321,40.9959126 C111.265857,41.3882185 111.409654,41.6688792 111.675712,41.8378946 C111.94166,42.0071311 112.259847,42.0915835 112.630273,42.0915835 C113.032839,42.0915835 113.342964,42.0152005 113.560427,41.8622134 C113.77789,41.7093368 113.886787,41.5032905 113.886787,41.2441851" id="Fill-33"></path>
                    <path d="M116.222331,39.8084936 C116.222331,38.9269383 116.452384,38.211856 116.912601,37.6630257 C117.372708,37.1143059 118.009082,36.839946 118.821613,36.839946 C119.641323,36.839946 120.282115,37.1143059 120.744099,37.6630257 C121.206083,38.211856 121.437131,38.9269383 121.437131,39.8084936 L121.437131,39.9380463 C121.437131,40.8232494 121.206967,41.5375578 120.74686,42.0808612 C120.286643,42.6242751 119.648502,42.8958715 118.832437,42.8958715 C118.012727,42.8958715 117.372708,42.6242751 116.912601,42.0808612 C116.452384,41.5375578 116.222331,40.8232494 116.222331,39.9380463 L116.222331,39.8084936 L116.222331,39.8084936 Z M117.225376,39.9380463 C117.225376,40.5749769 117.35835,41.0930771 117.624408,41.4924576 C117.890466,41.8919486 118.293142,42.0915835 118.832437,42.0915835 C119.364442,42.0915835 119.765351,41.8910643 120.035053,41.4898046 C120.304645,41.0886555 120.439497,40.571329 120.439497,39.9380463 L120.439497,39.8084936 C120.439497,39.1823959 120.303651,38.6660643 120.032292,38.2593882 C119.760823,37.8529332 119.357263,37.6495398 118.821613,37.6495398 C118.289497,37.6495398 117.890466,37.8529332 117.624408,38.2593882 C117.35835,38.6660643 117.225376,39.1823959 117.225376,39.8084936 L117.225376,39.9380463 L117.225376,39.9380463 Z" id="Fill-34"></path>
                    <path d="M123.896813,36.9478329 L123.966944,37.8222031 L123.98318,37.8276195 C124.173584,37.5145707 124.415455,37.2717147 124.708461,37.0989409 C125.001356,36.9262776 125.340307,36.839946 125.72498,36.839946 C126.361355,36.839946 126.848409,37.0197943 127.186366,37.3796015 C127.524322,37.7395193 127.693301,38.3134422 127.693301,39.1013702 L127.693301,42.787874 L126.690255,42.787874 L126.690255,39.123036 C126.690255,38.5869177 126.588647,38.2108612 126.385652,37.9949769 C126.182437,37.7790925 125.863366,37.6710951 125.42844,37.6710951 C125.101197,37.6710951 124.81802,37.748473 124.579021,37.9032288 C124.339911,38.0579846 124.146636,38.2738689 123.999304,38.5508817 L123.999304,42.787874 L122.996258,42.787874 L122.996258,36.9478329 L123.896813,36.9478329" id="Fill-35"></path>
                    <path d="M130.508831,37.7412879 L130.525066,37.7467044 C130.72276,37.4588586 130.967281,37.2357892 131.25852,37.0773856 C131.549648,36.9190925 131.880426,36.839946 132.250742,36.839946 C132.887116,36.839946 133.373288,37.0234422 133.709477,37.3904344 C134.045556,37.7574267 134.213651,38.3386452 134.213651,39.1337584 L134.213651,42.787874 L133.216017,42.787874 L133.216017,39.123036 C133.216017,38.6156581 133.111758,38.2468972 132.903241,38.0165321 C132.694724,37.7862776 132.376537,37.6710951 131.94868,37.6710951 C131.636015,37.6710951 131.357256,37.7449357 131.112845,37.8923959 C130.868434,38.0399666 130.666986,38.2432494 130.508831,38.5023548 L130.508831,42.787874 L129.505785,42.787874 L129.505785,34.3678329 L130.508831,34.3678329 L130.508831,37.7412879" id="Fill-36"></path>
                    <path d="M135.751131,39.8084936 C135.751131,38.9269383 135.981185,38.211856 136.441402,37.6630257 C136.901509,37.1143059 137.537883,36.839946 138.350524,36.839946 C139.170124,36.839946 139.810916,37.1143059 140.273011,37.6630257 C140.734884,38.211856 140.965932,38.9269383 140.965932,39.8084936 L140.965932,39.9380463 C140.965932,40.8232494 140.735768,41.5375578 140.275661,42.0808612 C139.815444,42.6242751 139.177303,42.8958715 138.361237,42.8958715 C137.541527,42.8958715 136.901509,42.6242751 136.441402,42.0808612 C135.981185,41.5375578 135.751131,40.8232494 135.751131,39.9380463 L135.751131,39.8084936 L135.751131,39.8084936 Z M136.754177,39.9380463 C136.754177,40.5749769 136.887261,41.0930771 137.153319,41.4924576 C137.419267,41.8919486 137.821943,42.0915835 138.361237,42.0915835 C138.893353,42.0915835 139.294152,41.8910643 139.563854,41.4898046 C139.833446,41.0886555 139.968298,40.571329 139.968298,39.9380463 L139.968298,39.8084936 C139.968298,39.1823959 139.832563,38.6660643 139.561204,38.2593882 C139.289624,37.8529332 138.886064,37.6495398 138.350524,37.6495398 C137.818298,37.6495398 137.419267,37.8529332 137.153319,38.2593882 C136.887261,38.6660643 136.754177,39.1823959 136.754177,39.8084936 L136.754177,39.9380463 L136.754177,39.9380463 Z" id="Fill-37"></path>
                    <path d="M145.933228,41.2441851 C145.933228,40.9995604 145.843217,40.8006992 145.663526,40.6478226 C145.483724,40.494946 145.133288,40.3627404 144.611995,40.2510951 C143.892899,40.0963393 143.3599,39.8894087 143.012998,39.6304139 C142.666095,39.3713085 142.492589,39.0096221 142.492589,38.5454653 C142.492589,38.063401 142.688515,37.6586041 143.080479,37.3310746 C143.472221,37.0036555 143.995391,36.839946 144.649767,36.839946 C145.340038,36.839946 145.882866,37.0117249 146.278364,37.3552828 C146.673751,37.6990617 146.871554,38.1335938 146.871554,38.6588792 L145.87392,38.6588792 C145.87392,38.3925887 145.76414,38.1578021 145.54491,37.9544087 C145.325569,37.7512365 145.027262,37.6495398 144.649767,37.6495398 C144.25427,37.6495398 143.962147,37.7332185 143.7734,37.9004653 C143.584652,38.0678226 143.490334,38.2721003 143.490334,38.5130771 C143.490334,38.7542751 143.571178,38.9404242 143.732977,39.0717455 C143.894777,39.2030668 144.238035,39.3245501 144.762971,39.4360848 C145.507138,39.5980257 146.054495,39.8121414 146.405042,40.0783213 C146.755589,40.3447224 146.930863,40.7098355 146.930863,41.1739923 C146.930863,41.6993882 146.726763,42.1177815 146.318786,42.4289512 C145.910588,42.7402314 145.363341,42.8958715 144.676715,42.8958715 C143.925259,42.8958715 143.340131,42.711491 142.92133,42.3426195 C142.502418,41.9738586 142.293128,41.5248458 142.293128,40.9959126 L143.290763,40.9959126 C143.312299,41.3882185 143.456096,41.6688792 143.722154,41.8378946 C143.988101,42.0071311 144.306289,42.0915835 144.676715,42.0915835 C145.079281,42.0915835 145.389406,42.0152005 145.606979,41.8622134 C145.824331,41.7093368 145.933228,41.5032905 145.933228,41.2441851" id="Fill-38"></path>
                </g>
            </g>
        </g>
    </g>
</svg>