<?xml version="1.0" encoding="UTF-8" standalone="no"?>
<svg
   xmlns:sketch="http://www.bohemiancoding.com/sketch/ns"
   xmlns:dc="http://purl.org/dc/elements/1.1/"
   xmlns:cc="http://creativecommons.org/ns#"
   xmlns:rdf="http://www.w3.org/1999/02/22-rdf-syntax-ns#"
   xmlns:svg="http://www.w3.org/2000/svg"
   xmlns="http://www.w3.org/2000/svg"
   xmlns:sodipodi="http://sodipodi.sourceforge.net/DTD/sodipodi-0.dtd"
   xmlns:inkscape="http://www.inkscape.org/namespaces/inkscape"
   width="512"
   height="512"
   viewBox="0 0 512 512"
   version="1.1"
   id="svg2"
   inkscape:version="0.91 r13725"
   sodipodi:docname="garbage.svg">
  <metadata
     id="metadata15">
    <rdf:RDF>
      <cc:Work
         rdf:about="">
        <dc:format>image/svg+xml</dc:format>
        <dc:type
           rdf:resource="http://purl.org/dc/dcmitype/StillImage" />
        <dc:title>left</dc:title>
      </cc:Work>
    </rdf:RDF>
  </metadata>
  <sodipodi:namedview
     pagecolor="#ffffff"
     bordercolor="#666666"
     borderopacity="1"
     objecttolerance="10"
     gridtolerance="10"
     guidetolerance="10"
     inkscape:pageopacity="0"
     inkscape:pageshadow="2"
     inkscape:window-width="1280"
     inkscape:window-height="751"
     id="namedview13"
     showgrid="false"
     inkscape:showpageshadow="false"
     inkscape:zoom="0.9140625"
     inkscape:cx="112.01622"
     inkscape:cy="259.61582"
     inkscape:window-x="0"
     inkscape:window-y="0"
     inkscape:window-maximized="1"
     inkscape:current-layer="garbage" />
  <!-- Generator: Sketch 3.3.2 (12043) - http://www.bohemiancoding.com/sketch -->
  <title
     id="title4">left</title>
  <desc
     id="desc6">Created with Sketch.</desc>
  <defs
     id="defs8" />
  <g
     sketch:type="MSPage"
     id="Page-1"
     style="fill:none;fill-rule:evenodd;stroke:none;stroke-width:1"
     transform="matrix(25.6,0,0,25.6,-153.6,-153.6)">
    <g
       sketch:type="MSArtboardGroup"
       id="garbage"
       style="fill:#666666">
      <path
         sketch:type="MSShapeGroup"
         id="Shape"
         d="m 16.625,12.875 -1.25,0 0,8.75 1.25,0 0,-8.75 0,0 z m -3.75,1.25 -1.25,0 0,7.5 1.25,0 0,-7.5 0,0 z m 7.5,0 -1.25,0 0,7.5 1.25,0 0,-7.5 0,0 z m 5,-5.625 -6.25,0 0,-1.875 C 19.125,6.28 18.845,6 18.5,6 l -5,0 c -0.345,0 -0.625,0.28 -0.625,0.625 l 0,1.875 -6.25,0 C 6.28,8.5 6,8.78 6,9.125 6,9.47 6.28,9.75 6.625,9.75 l 1.25,0 0,15 c 0,0.690625 0.56,1.25 1.25,1.25 l 13.75,0 c 0.69,0 1.25,-0.559375 1.25,-1.25 l 0,-15 1.25,0 C 25.72,9.75 26,9.47 26,9.125 26,8.78 25.72,8.5 25.375,8.5 l 0,0 z m -11.25,-1.25 3.75,0 0,1.25 -3.75,0 0,-1.25 0,0 z m 8.75,16.875 c 0,0.345 -0.28,0.625 -0.625,0.625 l -12.5,0 c -0.345,0 -0.625,-0.28 -0.625,-0.625 l 0,-14.375 13.75,0 0,14.375 0,0 z"
         inkscape:connector-curvature="0" />
    </g>
  </g>
</svg>
