<?xml version="1.0" encoding="UTF-8" standalone="no"?>
<svg
   xmlns:sketch="http://www.bohemiancoding.com/sketch/ns"
   xmlns:dc="http://purl.org/dc/elements/1.1/"
   xmlns:cc="http://creativecommons.org/ns#"
   xmlns:rdf="http://www.w3.org/1999/02/22-rdf-syntax-ns#"
   xmlns:svg="http://www.w3.org/2000/svg"
   xmlns="http://www.w3.org/2000/svg"
   xmlns:sodipodi="http://sodipodi.sourceforge.net/DTD/sodipodi-0.dtd"
   xmlns:inkscape="http://www.inkscape.org/namespaces/inkscape"
   width="511.99994"
   height="511.99994"
   viewBox="0 0 511.99994 511.99994"
   version="1.1"
   id="svg2"
   inkscape:version="0.91 r13725"
   sodipodi:docname="cross.svg">
  <metadata
     id="metadata15">
    <rdf:RDF>
      <cc:Work
         rdf:about="">
        <dc:format>image/svg+xml</dc:format>
        <dc:type
           rdf:resource="http://purl.org/dc/dcmitype/StillImage" />
        <dc:title>cross</dc:title>
      </cc:Work>
    </rdf:RDF>
  </metadata>
  <sodipodi:namedview
     pagecolor="#ffffff"
     bordercolor="#666666"
     borderopacity="1"
     objecttolerance="10"
     gridtolerance="10"
     guidetolerance="10"
     inkscape:pageopacity="0"
     inkscape:pageshadow="2"
     inkscape:window-width="1280"
     inkscape:window-height="751"
     id="namedview13"
     showgrid="false"
     fit-margin-top="0"
     fit-margin-left="0"
     fit-margin-right="0"
     fit-margin-bottom="0"
     inkscape:showpageshadow="false"
     inkscape:zoom="0.64"
     inkscape:cx="71.05972"
     inkscape:cy="245.28559"
     inkscape:window-x="0"
     inkscape:window-y="900"
     inkscape:window-maximized="1"
     inkscape:current-layer="svg2" />
  <!-- Generator: Sketch 3.3.2 (12043) - http://www.bohemiancoding.com/sketch -->
  <title
     id="title4">cross</title>
  <desc
     id="desc6">Created with Sketch.</desc>
  <defs
     id="defs8" />
  <g
     id="Page-1"
     sketch:type="MSPage"
     transform="matrix(27.750003,0,0,27.750003,-188.00008,-188.00008)"
     style="fill:none;fill-rule:evenodd;stroke:none;stroke-width:1">
    <g
       id="cross"
       sketch:type="MSArtboardGroup"
       style="fill:#666666">
      <path
         d="m 21.890297,19.640585 0,0 L 18.249711,16 l 3.640586,-3.640585 0,0 c 0.03933,-0.03933 0.06722,-0.0851 0.08581,-0.133724 0.05006,-0.133009 0.02145,-0.289617 -0.08581,-0.396167 l -1.719821,-1.719821 c -0.107265,-0.107265 -0.263158,-0.1358692 -0.396167,-0.08581 -0.04863,0.01788 -0.09439,0.04648 -0.133724,0.08581 l 0,0 L 16,13.750289 l -3.640585,-3.640586 0,0 c -0.03933,-0.03933 -0.0851,-0.06722 -0.133724,-0.08581 -0.133724,-0.050057 -0.289617,-0.02145 -0.396167,0.08581 l -1.719821,1.719821 c -0.107265,0.107265 -0.1358692,0.263158 -0.08581,0.396167 0.01788,0.04863 0.04648,0.09439 0.08581,0.133724 l 0,0 L 13.750289,16 l -3.640586,3.640585 0,0 c -0.03933,0.03933 -0.06722,0.0851 -0.08581,0.133724 -0.050057,0.133009 -0.02145,0.289617 0.08581,0.396167 l 1.719821,1.719821 c 0.107265,0.107265 0.263158,0.135869 0.396167,0.08581 0.04863,-0.01788 0.09439,-0.04648 0.133724,-0.08581 l 0,0 L 16,18.249711 l 3.640585,3.640586 0,0 c 0.03933,0.03933 0.0851,0.06722 0.133724,0.08581 0.133009,0.05006 0.289617,0.02145 0.396167,-0.08581 l 1.719821,-1.719821 c 0.107265,-0.107265 0.135869,-0.263158 0.08581,-0.396167 -0.01788,-0.04863 -0.04648,-0.09439 -0.08581,-0.133724 l 0,0 z"
         id="Shape"
         sketch:type="MSShapeGroup"
         inkscape:connector-curvature="0" />
    </g>
  </g>
</svg>
