<?xml version="1.0" encoding="UTF-8" standalone="no"?>
<svg
   xmlns:sketch="http://www.bohemiancoding.com/sketch/ns"
   xmlns:dc="http://purl.org/dc/elements/1.1/"
   xmlns:cc="http://creativecommons.org/ns#"
   xmlns:rdf="http://www.w3.org/1999/02/22-rdf-syntax-ns#"
   xmlns:svg="http://www.w3.org/2000/svg"
   xmlns="http://www.w3.org/2000/svg"
   xmlns:sodipodi="http://sodipodi.sourceforge.net/DTD/sodipodi-0.dtd"
   xmlns:inkscape="http://www.inkscape.org/namespaces/inkscape"
   width="512"
   height="512"
   viewBox="0 0 512 512"
   version="1.1"
   id="svg2"
   inkscape:version="0.91 r13725"
   sodipodi:docname="gear.svg">
  <metadata
     id="metadata15">
    <rdf:RDF>
      <cc:Work
         rdf:about="">
        <dc:format>image/svg+xml</dc:format>
        <dc:type
           rdf:resource="http://purl.org/dc/dcmitype/StillImage" />
        <dc:title>left</dc:title>
      </cc:Work>
    </rdf:RDF>
  </metadata>
  <sodipodi:namedview
     pagecolor="#ffffff"
     bordercolor="#666666"
     borderopacity="1"
     objecttolerance="10"
     gridtolerance="10"
     guidetolerance="10"
     inkscape:pageopacity="0"
     inkscape:pageshadow="2"
     inkscape:window-width="1280"
     inkscape:window-height="751"
     id="namedview13"
     showgrid="false"
     inkscape:showpageshadow="false"
     inkscape:zoom="0.9140625"
     inkscape:cx="112.01622"
     inkscape:cy="259.61582"
     inkscape:window-x="0"
     inkscape:window-y="0"
     inkscape:window-maximized="1"
     inkscape:current-layer="garbage" />
  <!-- Generator: Sketch 3.3.2 (12043) - http://www.bohemiancoding.com/sketch -->
  <title
     id="title4">left</title>
  <desc
     id="desc6">Created with Sketch.</desc>
  <defs
     id="defs8" />
  <g
     sketch:type="MSPage"
     id="Page-1"
     style="fill:none;fill-rule:evenodd;stroke:none;stroke-width:1"
     transform="matrix(25.6,0,0,25.6,-153.6,-153.6)">
    <g
       sketch:type="MSArtboardGroup"
       id="garbage"
       style="fill:#666666">
      <path
         style="fill:#666666;fill-rule:evenodd;stroke:none;stroke-width:1"
         d="M 221.83203 0 C 213.50351 0 206.36915 6.0414456 205.00391 14.267578 L 194.28711 78.710938 C 187.39218 81.100273 180.73532 83.865579 174.25 87.005859 L 121.07031 49.015625 C 114.24364 44.168693 104.92665 44.954307 99.089844 50.859375 L 50.824219 99.123047 C 44.953286 104.99399 44.168693 114.31294 49.015625 121.10547 L 87.005859 174.25 C 83.831457 180.8036 81.066137 187.49458 78.710938 194.28711 L 14.267578 205.03906 C 6.0414456 206.40439 0 213.53864 0 221.86719 L 0 290.13281 C 0 298.49546 6.0414456 305.59559 14.267578 306.96094 L 78.710938 317.71289 C 81.100273 324.57372 83.864662 331.26468 87.039062 337.75 L 49.048828 390.89453 C 44.201903 397.68706 44.98844 407.00511 50.859375 412.91016 L 99.123047 461.17578 C 104.99399 467.04678 114.31202 467.79717 121.13867 462.98438 L 174.28516 424.99414 C 180.80463 428.13439 187.45951 430.89981 194.32031 433.28906 L 205.03906 497.73242 C 206.40439 505.9927 213.53864 512 221.86719 512 L 290.13281 512 C 298.46134 512 305.59569 505.9927 306.96094 497.73242 L 317.71289 433.28906 C 324.57372 430.89971 331.26373 428.13439 337.7832 424.99414 L 390.89453 462.98438 C 397.72121 467.79707 406.97096 467.04668 412.91016 461.17578 L 461.17578 412.91016 C 467.08086 407.00511 467.83233 397.68706 463.01953 390.89453 L 424.99414 337.75 C 428.13439 331.23055 430.93386 324.57372 433.28906 317.71289 L 497.73242 306.96094 C 505.95855 305.59559 512 298.49546 512 290.13281 L 512 221.86719 C 512 213.53864 505.9585 206.4044 497.73242 205.03906 L 433.28906 194.28711 C 430.93384 187.42631 428.13439 180.7012 424.99414 174.25 L 462.98438 121.10547 C 467.79718 114.31294 467.04567 104.99398 461.14062 99.123047 L 412.87695 50.859375 C 406.93775 44.954307 397.68798 44.168693 390.86133 49.015625 L 337.75 87.005859 C 331.1964 83.865592 324.50634 81.100265 317.67969 78.710938 L 306.92773 14.267578 C 305.56241 6.0414456 298.42813 0 290.09961 0 L 221.83203 0 z M 236.30469 34.132812 L 275.62695 34.132812 L 285.73047 94.617188 C 286.85687 101.13665 291.56722 106.42718 297.91602 108.23633 C 309.38482 111.479 320.44379 116.08795 330.82031 121.89062 C 336.58884 125.06503 343.68896 124.72228 349.08203 120.86523 L 398.98438 85.197266 L 426.76953 113.01562 L 391.13281 162.95312 C 387.30994 168.31208 386.90093 175.44437 390.17773 181.21289 C 395.91211 191.41877 400.48595 202.47866 403.79688 214.08398 C 405.60595 220.43278 410.89662 225.17828 417.41602 226.23633 L 477.86719 236.33984 L 477.86719 275.69531 L 417.41602 285.76367 C 410.89657 286.85595 405.60603 291.56722 403.79688 297.91602 C 400.5201 309.41894 395.91306 320.47789 390.14453 330.82031 C 386.90196 336.58884 387.31182 343.68795 391.13477 349.04688 L 426.80273 398.98438 L 399.01953 426.80273 L 349.11523 391.13477 C 343.68801 387.31174 336.62299 386.86773 330.82031 390.14453 C 320.58031 395.87893 309.52044 400.48687 297.94922 403.76367 C 291.60044 405.57275 286.85577 410.86334 285.76367 417.38281 L 275.66016 477.86719 L 236.33984 477.86719 L 226.26953 417.38281 C 225.21138 410.86334 220.43382 405.57282 214.11914 403.76367 C 202.65034 400.52102 191.55724 395.91202 181.21484 390.10938 C 175.44629 386.90085 168.3462 387.31182 162.95312 391.13477 L 113.04883 426.80273 L 85.230469 398.98438 L 120.90039 349.04688 C 124.72339 343.68795 125.13327 336.55366 121.89062 330.78516 C 116.08795 320.47686 111.51413 309.45217 108.27148 297.94922 C 106.46241 291.60044 101.17181 286.85577 94.652344 285.76367 L 34.132812 275.69531 L 34.132812 236.33984 L 94.652344 226.23633 C 101.17181 225.1782 106.49664 220.39855 108.27148 214.01562 C 111.44588 202.68335 116.01967 191.65864 121.89062 181.17969 C 125.09915 175.41116 124.72228 168.31208 120.86523 162.95312 L 85.197266 113.01562 L 112.98047 85.197266 L 162.91797 120.86523 C 168.27692 124.68826 175.34389 125.09814 181.21484 121.85547 C 191.45484 116.12107 202.51278 111.51313 214.08398 108.23633 C 220.39863 106.42728 225.17828 101.13665 226.23633 94.617188 L 236.30469 34.132812 z M 247.4668 162.13281 C 200.39692 162.13281 162.13281 200.43105 162.13281 247.4668 C 162.13281 294.53665 200.39692 332.80078 247.4668 332.80078 C 294.53665 332.80078 332.80078 294.53665 332.80078 247.4668 C 332.80078 200.43105 294.53665 162.13281 247.4668 162.13281 z M 247.4668 196.26758 C 275.69507 196.26758 298.66602 219.23852 298.66602 247.4668 C 298.66602 275.69507 275.69507 298.66602 247.4668 298.66602 C 219.23852 298.66602 196.26758 275.69507 196.26758 247.4668 C 196.26758 219.23852 219.23852 196.26758 247.4668 196.26758 z "
         transform="matrix(0.0390625,0,0,0.0390625,6,6)"
         id="Fill-1" />
    </g>
  </g>
</svg>
