<?xml version="1.0" encoding="UTF-8" standalone="no"?>
<svg
   xmlns:sketch="http://www.bohemiancoding.com/sketch/ns"
   xmlns:dc="http://purl.org/dc/elements/1.1/"
   xmlns:cc="http://creativecommons.org/ns#"
   xmlns:rdf="http://www.w3.org/1999/02/22-rdf-syntax-ns#"
   xmlns:svg="http://www.w3.org/2000/svg"
   xmlns="http://www.w3.org/2000/svg"
   xmlns:sodipodi="http://sodipodi.sourceforge.net/DTD/sodipodi-0.dtd"
   xmlns:inkscape="http://www.inkscape.org/namespaces/inkscape"
   width="512"
   height="512"
   viewBox="0 0 512 512"
   version="1.1"
   id="svg2"
   inkscape:version="0.91 r13725"
   sodipodi:docname="letter.svg">
  <metadata
     id="metadata15">
    <rdf:RDF>
      <cc:Work
         rdf:about="">
        <dc:format>image/svg+xml</dc:format>
        <dc:type
           rdf:resource="http://purl.org/dc/dcmitype/StillImage" />
        <dc:title>mail</dc:title>
      </cc:Work>
    </rdf:RDF>
  </metadata>
  <sodipodi:namedview
     pagecolor="#ffffff"
     bordercolor="#666666"
     borderopacity="1"
     objecttolerance="10"
     gridtolerance="10"
     guidetolerance="10"
     inkscape:pageopacity="0"
     inkscape:pageshadow="2"
     inkscape:window-width="1280"
     inkscape:window-height="751"
     id="namedview13"
     showgrid="false"
     inkscape:showpageshadow="false"
     inkscape:zoom="0.83792943"
     inkscape:cx="271.18644"
     inkscape:cy="210.44068"
     inkscape:window-x="0"
     inkscape:window-y="900"
     inkscape:window-maximized="1"
     inkscape:current-layer="mail" />
  <!-- Generator: Sketch 3.3.2 (12043) - http://www.bohemiancoding.com/sketch -->
  <title
     id="title4">mail</title>
  <desc
     id="desc6">Created with Sketch.</desc>
  <defs
     id="defs8" />
  <g
     id="Page-1"
     sketch:type="MSPage"
     style="fill:none;fill-rule:evenodd;stroke:none;stroke-width:1"
     transform="translate(0,480)">
    <g
       id="mail"
       sketch:type="MSArtboardGroup"
       style="fill:#ffffff">
      <path
         d="m 475.65024,-60.919989 0,-230.343301 c -6.14459,7.1701 -12.80008,13.81043 -19.96648,19.92099 -50.85514,40.90154 -91.47159,74.62571 -121.84936,101.17252 -9.55519,8.60704 -17.40508,15.42154 -23.54967,20.44351 -6.1446,5.02199 -14.33969,9.86254 -24.58528,14.52165 -10.2456,4.65912 -19.97339,6.98868 -29.18337,6.98868 l -1.01489,0 c -8.8786,0 -18.60639,-2.32956 -29.18337,-6.98868 -10.57699,-4.65911 -18.77208,-9.49966 -24.58528,-14.52165 -5.8132,-5.02197 -13.66309,-11.83647 -23.54967,-20.44351 -30.03257,-26.54681 -70.64902,-60.27098 -121.849368,-101.17252 -7.166391,-6.09604 -13.821884,-12.73638 -19.966478,-19.92099 l 0,230.343301 c 0,2.873847 1.021798,5.203408 3.065393,6.988676 2.043595,1.785269 4.094095,2.68516 6.151498,2.699675 l 420.849435,0 c 2.3888,0 4.4393,-0.899892 6.1515,-2.699675 1.7122,-1.799786 2.734,-4.129343 3.06539,-6.988676 l 0,0 z m 0,-315.383091 0,-7.53297 c 0,0 -0.1726,-1.25549 -0.5178,-3.76648 -0.3452,-2.51099 -0.5178,-3.76648 -0.5178,-3.76648 0,0 -0.5109,-0.8999 -1.5327,-2.69968 -1.0218,-1.79979 -1.8779,-2.51824 -2.5683,-2.15538 -0.69041,0.36285 -2.05741,0.007 -4.101,-1.06681 l -420.849437,0 c -2.388797,0 -4.439296,1.07407 -6.151498,3.22219 -1.712201,2.14813 -2.733999,4.30352 -3.065393,6.46616 0,33.73143 13.994485,62.2522 41.983454,85.56231 36.867564,30.49472 75.095224,62.24494 114.682974,95.25065 1.367,0.71121 4.77759,3.5778 10.23178,8.59977 5.45419,5.02198 9.72089,8.78847 12.80009,11.29945 3.0792,2.51099 7.34589,5.74044 12.80009,9.68836 5.45419,3.94792 10.23178,6.64032 14.33278,8.07725 4.101,1.43693 8.19509,2.33682 12.28228,2.69968 l 1.01489,0 c 3.7558,0 7.8499,-0.89989 12.28229,-2.69968 4.43239,-1.79978 9.20998,-4.4922 14.33278,-8.07725 5.1228,-3.58506 9.38949,-6.81451 12.80009,-9.68836 3.41059,-2.87384 7.67729,-6.64033 12.80008,-11.29945 5.1228,-4.65912 8.53339,-7.5257 10.23179,-8.59977 39.58775,-33.00571 77.81541,-64.75593 114.68297,-95.25065 10.24559,-8.60704 19.80078,-20.26935 28.66557,-34.98693 8.86478,-14.71759 13.30408,-27.80957 13.31788,-39.27593 l 0.0621,0 z M 512,-387.60253 l 0,326.682541 c 0,13.280661 -4.4393,24.580111 -13.31789,33.898348 -8.87859,9.318234 -19.62818,14.158783 -32.24876,14.521641 l -420.849435,0 C 33.294727,-12.5 22.54514,-17.340547 13.335154,-27.021641 4.125168,-36.702739 -0.31412871,-48.002186 0.01726509,-60.919989 l 0,-326.682541 c 0,-13.28066 4.43929591,-24.58011 13.31788891,-33.89835 8.878593,-9.31823 19.62818,-13.98461 32.248761,-13.99912 l 420.849435,0 c 12.63439,0 23.38398,4.66637 32.24876,13.99912 8.86479,9.33275 13.30408,20.6322 13.31789,33.89835 l 0,0 z"
         id="Shape"
         sketch:type="MSShapeGroup"
         inkscape:connector-curvature="0" />
    </g>
  </g>
</svg>
